<?xml version="1.0" encoding="UTF-8" standalone="no"?>
<!DOCTYPE svg PUBLIC "-//W3C//DTD SVG 1.1//EN"
 "http://www.w3.org/Graphics/SVG/1.1/DTD/svg11.dtd">
<!-- Generated by graphviz version 2.43.0 (0)
 -->
<!-- Title: horizon_capital_simple Pages: 1 -->
<svg width="1470pt" height="1588pt"
 viewBox="0.00 0.00 1469.87 1588.27" xmlns="http://www.w3.org/2000/svg" xmlns:xlink="http://www.w3.org/1999/xlink">
<g id="graph0" class="graph" transform="scale(1 1) rotate(0) translate(36 1552.27)">
<title>horizon_capital_simple</title>
<polygon fill="white" stroke="transparent" points="-36,36 -36,-1552.27 1433.87,-1552.27 1433.87,36 -36,36"/>
<text text-anchor="start" x="416.93" y="-1495.67" font-family="Helvetica,sans-Serif" font-weight="bold" font-size="22.00">How Horizon Capital Works — In Plain English</text>
<text text-anchor="start" x="319.43" y="-1480.87" font-family="Helvetica,sans-Serif" font-size="13.00" fill="#666666">A team of AI specialists: a manager, scouts, an analyst desk, a risk officer, a human approver, and a trading desk</text>
<g id="clust1" class="cluster">
<title>cluster_world</title>
<path fill="#fef9e7" stroke="#e8c84a" d="M196,-1125.02C196,-1125.02 480,-1125.02 480,-1125.02 486,-1125.02 492,-1131.02 492,-1137.02 492,-1137.02 492,-1441.4 492,-1441.4 492,-1447.4 486,-1453.4 480,-1453.4 480,-1453.4 196,-1453.4 196,-1453.4 190,-1453.4 184,-1447.4 184,-1441.4 184,-1441.4 184,-1137.02 184,-1137.02 184,-1131.02 190,-1125.02 196,-1125.02"/>
<text text-anchor="start" x="192" y="-1439.2" font-family="Helvetica,sans-Serif" font-weight="bold" font-size="14.00">① The Outside World</text>
</g>
<g id="clust2" class="cluster">
<title>cluster_manage</title>
<path fill="#ffe5cc" stroke="#d97a2c" d="M512,-1015.02C512,-1015.02 682,-1015.02 682,-1015.02 688,-1015.02 694,-1021.02 694,-1027.02 694,-1027.02 694,-1307.52 694,-1307.52 694,-1313.52 688,-1319.52 682,-1319.52 682,-1319.52 512,-1319.52 512,-1319.52 506,-1319.52 500,-1313.52 500,-1307.52 500,-1307.52 500,-1027.02 500,-1027.02 500,-1021.02 506,-1015.02 512,-1015.02"/>
<text text-anchor="start" x="508" y="-1305.32" font-family="Helvetica,sans-Serif" font-weight="bold" font-size="14.00">② The Firm Manager</text>
</g>
<g id="clust3" class="cluster">
<title>cluster_desk</title>
<path fill="#e5f0ff" stroke="#3a7adf" d="M548,-8C548,-8 714,-8 714,-8 720,-8 726,-14 726,-20 726,-20 726,-963.02 726,-963.02 726,-969.02 720,-975.02 714,-975.02 714,-975.02 548,-975.02 548,-975.02 542,-975.02 536,-969.02 536,-963.02 536,-963.02 536,-20 536,-20 536,-14 542,-8 548,-8"/>
<text text-anchor="start" x="544" y="-960.82" font-family="Helvetica,sans-Serif" font-weight="bold" font-size="14.00">③ The Analyst Desk</text>
</g>
<g id="clust4" class="cluster">
<title>cluster_gate</title>
<path fill="#fde7e7" stroke="#c83a3a" d="M177,-404.38C177,-404.38 381,-404.38 381,-404.38 387,-404.38 393,-410.38 393,-416.38 393,-416.38 393,-733.02 393,-733.02 393,-739.02 387,-745.02 381,-745.02 381,-745.02 177,-745.02 177,-745.02 171,-745.02 165,-739.02 165,-733.02 165,-733.02 165,-416.38 165,-416.38 165,-410.38 171,-404.38 177,-404.38"/>
<text text-anchor="start" x="173" y="-730.82" font-family="Helvetica,sans-Serif" font-weight="bold" font-size="14.00">④ Risk + Human Gate</text>
</g>
<g id="clust5" class="cluster">
<title>cluster_trade</title>
<path fill="#dff5e2" stroke="#3a9d4a" d="M354,-128C354,-128 516,-128 516,-128 522,-128 528,-134 528,-140 528,-140 528,-352.38 528,-352.38 528,-358.38 522,-364.38 516,-364.38 516,-364.38 354,-364.38 354,-364.38 348,-364.38 342,-358.38 342,-352.38 342,-352.38 342,-140 342,-140 342,-134 348,-128 354,-128"/>
<text text-anchor="start" x="350" y="-350.18" font-family="Helvetica,sans-Serif" font-weight="bold" font-size="14.00">⑤ The Trading Desk</text>
</g>
<g id="clust6" class="cluster">
<title>cluster_out</title>
<path fill="#f0e6fa" stroke="#7a4fb0" d="M20,-8C20,-8 508,-8 508,-8 514,-8 520,-14 520,-20 520,-20 520,-76 520,-76 520,-82 514,-88 508,-88 508,-88 20,-88 20,-88 14,-88 8,-82 8,-76 8,-76 8,-20 8,-20 8,-14 14,-8 20,-8"/>
<text text-anchor="start" x="16" y="-73.8" font-family="Helvetica,sans-Serif" font-weight="bold" font-size="14.00">⑥ Reports for Humans (3 channels)</text>
</g>
<g id="clust7" class="cluster">
<title>cluster_knowledge</title>
<path fill="#e9f7ec" stroke="#3f8a4f" d="M716,-1235.02C716,-1235.02 1100,-1235.02 1100,-1235.02 1106,-1235.02 1112,-1241.02 1112,-1247.02 1112,-1247.02 1112,-1453.27 1112,-1453.27 1112,-1459.27 1106,-1465.27 1100,-1465.27 1100,-1465.27 716,-1465.27 716,-1465.27 710,-1465.27 704,-1459.27 704,-1453.27 704,-1453.27 704,-1247.02 704,-1247.02 704,-1241.02 710,-1235.02 716,-1235.02"/>
<text text-anchor="start" x="712" y="-1452.67" font-family="Helvetica,sans-Serif" font-weight="bold" font-size="12.00">Shared Knowledge (used by all agents)</text>
</g>
<!-- news -->
<g id="node1" class="node">
<title>news</title>
<polygon fill="#fff7d6" stroke="#333333" stroke-width="1.6" points="470,-1174.02 346,-1174.02 346,-1133.02 476,-1133.02 476,-1168.02 470,-1174.02"/>
<polyline fill="none" stroke="#333333" stroke-width="1.6" points="470,-1174.02 470,-1168.02 "/>
<polyline fill="none" stroke="#333333" stroke-width="1.6" points="476,-1168.02 470,-1168.02 "/>
<text text-anchor="start" x="402" y="-1161.42" font-family="Helvetica,sans-Serif" font-size="12.00">📰</text>
<text text-anchor="start" x="392.5" y="-1149.42" font-family="Helvetica,sans-Serif" font-weight="bold" font-size="12.00">News</text>
<text text-anchor="start" x="371" y="-1139.82" font-family="Helvetica,sans-Serif" font-size="9.00">finance headlines</text>
</g>
<!-- triage -->
<g id="node5" class="node">
<title>triage</title>
<path fill="#ffe2c2" stroke="#333333" stroke-width="1.6" d="M643,-1064.02C643,-1064.02 523,-1064.02 523,-1064.02 517,-1064.02 511,-1058.02 511,-1052.02 511,-1052.02 511,-1035.02 511,-1035.02 511,-1029.02 517,-1023.02 523,-1023.02 523,-1023.02 643,-1023.02 643,-1023.02 649,-1023.02 655,-1029.02 655,-1035.02 655,-1035.02 655,-1052.02 655,-1052.02 655,-1058.02 649,-1064.02 643,-1064.02"/>
<text text-anchor="start" x="574" y="-1051.42" font-family="Helvetica,sans-Serif" font-size="12.00">📨</text>
<text text-anchor="start" x="541.5" y="-1039.42" font-family="Helvetica,sans-Serif" font-weight="bold" font-size="12.00">News Triage</text>
<text text-anchor="start" x="549.5" y="-1029.82" font-family="Helvetica,sans-Serif" font-size="9.00">material story?</text>
</g>
<!-- news&#45;&gt;triage -->
<g id="edge1" class="edge">
<title>news&#45;&gt;triage</title>
<path fill="none" stroke="#a04020" stroke-width="2.2" d="M420.05,-1133.01C426.92,-1120.09 437.49,-1103.63 451,-1093.02 465.75,-1081.45 483.52,-1072.46 501.18,-1065.53"/>
<polygon fill="#a04020" stroke="#a04020" stroke-width="2.2" points="502.81,-1068.66 510.96,-1061.9 500.37,-1062.1 502.81,-1068.66"/>
<text text-anchor="middle" x="475.5" y="-1096.02" font-family="Helvetica,sans-Serif" font-size="10.00"> headline </text>
</g>
<!-- market -->
<g id="node2" class="node">
<title>market</title>
<polygon fill="#fff7d6" stroke="#333333" stroke-width="1.6" points="478,-1422.4 354,-1422.4 354,-1381.4 484,-1381.4 484,-1416.4 478,-1422.4"/>
<polyline fill="none" stroke="#333333" stroke-width="1.6" points="478,-1422.4 478,-1416.4 "/>
<polyline fill="none" stroke="#333333" stroke-width="1.6" points="484,-1416.4 478,-1416.4 "/>
<text text-anchor="start" x="410" y="-1409.8" font-family="Helvetica,sans-Serif" font-size="12.00">📈</text>
<text text-anchor="start" x="376.5" y="-1397.8" font-family="Helvetica,sans-Serif" font-weight="bold" font-size="12.00">Market Data</text>
<text text-anchor="start" x="387" y="-1388.2" font-family="Helvetica,sans-Serif" font-size="9.00">prices · filings</text>
</g>
<!-- tools -->
<g id="node19" class="node">
<title>tools</title>
<polygon fill="#d3eed7" stroke="#333333" stroke-width="1.6" points="872,-1293.02 869,-1297.02 848,-1297.02 845,-1293.02 714,-1293.02 714,-1243.02 872,-1243.02 872,-1293.02"/>
<text text-anchor="start" x="784" y="-1280.42" font-family="Helvetica,sans-Serif" font-size="12.00">🧰</text>
<text text-anchor="start" x="767" y="-1268.42" font-family="Helvetica,sans-Serif" font-weight="bold" font-size="12.00">Toolbox</text>
<text text-anchor="start" x="759.5" y="-1258.82" font-family="Helvetica,sans-Serif" font-size="9.00">prices · search</text>
<text text-anchor="start" x="751" y="-1249.82" font-family="Helvetica,sans-Serif" font-size="9.00">simulate · dossiers</text>
</g>
<!-- market&#45;&gt;tools -->
<g id="edge3" class="edge">
<title>market&#45;&gt;tools</title>
<path fill="none" stroke="#7a4fb0" stroke-width="1.5" stroke-dasharray="5,2" d="M484.03,-1388.08C544.18,-1374.98 635.3,-1351.96 710,-1319.52 723.32,-1313.74 737.07,-1306.13 749.45,-1298.59"/>
<polygon fill="#7a4fb0" stroke="#7a4fb0" stroke-width="1.5" points="751.57,-1301.39 758.2,-1293.13 747.87,-1295.45 751.57,-1301.39"/>
</g>
<!-- clock -->
<g id="node3" class="node">
<title>clock</title>
<polygon fill="#fff7d6" stroke="#333333" stroke-width="1.6" points="316,-1422.4 192,-1422.4 192,-1381.4 322,-1381.4 322,-1416.4 316,-1422.4"/>
<polyline fill="none" stroke="#333333" stroke-width="1.6" points="316,-1422.4 316,-1416.4 "/>
<polyline fill="none" stroke="#333333" stroke-width="1.6" points="322,-1416.4 316,-1416.4 "/>
<text text-anchor="start" x="250.5" y="-1409.8" font-family="Helvetica,sans-Serif" font-size="12.00">⏰</text>
<text text-anchor="start" x="224" y="-1397.8" font-family="Helvetica,sans-Serif" font-weight="bold" font-size="12.00">The Clock</text>
<text text-anchor="start" x="219" y="-1388.2" font-family="Helvetica,sans-Serif" font-size="9.00">scheduled scans</text>
</g>
<!-- manager -->
<g id="node4" class="node">
<title>manager</title>
<polygon fill="#ffd9b3" stroke="#333333" stroke-width="1.6" points="681.5,-1288.52 512.5,-1288.52 508.5,-1284.52 508.5,-1247.52 677.5,-1247.52 681.5,-1251.52 681.5,-1288.52"/>
<polyline fill="none" stroke="#333333" stroke-width="1.6" points="677.5,-1284.52 508.5,-1284.52 "/>
<polyline fill="none" stroke="#333333" stroke-width="1.6" points="677.5,-1284.52 677.5,-1247.52 "/>
<polyline fill="none" stroke="#333333" stroke-width="1.6" points="677.5,-1284.52 681.5,-1288.52 "/>
<text text-anchor="start" x="586" y="-1275.92" font-family="Helvetica,sans-Serif" font-size="12.00">🧭</text>
<text text-anchor="start" x="533.5" y="-1263.92" font-family="Helvetica,sans-Serif" font-weight="bold" font-size="12.00">Portfolio Manager</text>
<text text-anchor="start" x="531.5" y="-1254.32" font-family="Helvetica,sans-Serif" font-size="9.00">decides what gets attention</text>
</g>
<!-- clock&#45;&gt;manager -->
<g id="edge2" class="edge">
<title>clock&#45;&gt;manager</title>
<path fill="none" stroke="#a04020" stroke-width="1.8" d="M302.07,-1381.29C313.68,-1376.53 326.22,-1371.63 338,-1367.52 410.93,-1342.11 433.74,-1349.29 505,-1319.52 522.14,-1312.37 540.15,-1302.73 555.52,-1293.79"/>
<polygon fill="#a04020" stroke="#a04020" stroke-width="1.8" points="557.42,-1296.73 564.24,-1288.63 553.85,-1290.71 557.42,-1296.73"/>
<text text-anchor="middle" x="497" y="-1330.52" font-family="Helvetica,sans-Serif" font-size="10.00"> wake </text>
</g>
<!-- manager&#45;&gt;triage -->
<g id="edge5" class="edge">
<title>manager&#45;&gt;triage</title>
<path fill="none" stroke="#a04020" stroke-width="1.5" stroke-dasharray="5,2" d="M574.51,-1247.47C557.82,-1230.03 535.53,-1202.85 526,-1174.02 519.17,-1153.35 519.4,-1145.78 526,-1125.02 532.26,-1105.34 545.29,-1086.32 557.3,-1071.72"/>
<polygon fill="#a04020" stroke="#a04020" stroke-width="1.5" points="559.99,-1073.97 563.83,-1064.09 554.67,-1069.42 559.99,-1073.97"/>
</g>
<!-- ideas -->
<g id="node6" class="node">
<title>ideas</title>
<path fill="#ffe2c2" stroke="#333333" stroke-width="1.6" d="M674,-1174.02C674,-1174.02 554,-1174.02 554,-1174.02 548,-1174.02 542,-1168.02 542,-1162.02 542,-1162.02 542,-1145.02 542,-1145.02 542,-1139.02 548,-1133.02 554,-1133.02 554,-1133.02 674,-1133.02 674,-1133.02 680,-1133.02 686,-1139.02 686,-1145.02 686,-1145.02 686,-1162.02 686,-1162.02 686,-1168.02 680,-1174.02 674,-1174.02"/>
<text text-anchor="start" x="605" y="-1161.42" font-family="Helvetica,sans-Serif" font-size="12.00">🔭</text>
<text text-anchor="start" x="577.5" y="-1149.42" font-family="Helvetica,sans-Serif" font-weight="bold" font-size="12.00">Idea Scout</text>
<text text-anchor="start" x="571" y="-1139.82" font-family="Helvetica,sans-Serif" font-size="9.00">finds opportunities</text>
</g>
<!-- manager&#45;&gt;ideas -->
<g id="edge4" class="edge">
<title>manager&#45;&gt;ideas</title>
<path fill="none" stroke="#a04020" stroke-width="1.8" d="M598.31,-1247.43C601.25,-1230.03 605.58,-1204.35 608.95,-1184.4"/>
<polygon fill="#a04020" stroke="#a04020" stroke-width="1.8" points="612.45,-1184.72 610.66,-1174.27 605.55,-1183.55 612.45,-1184.72"/>
<text text-anchor="middle" x="621.5" y="-1206.02" font-family="Helvetica,sans-Serif" font-size="10.00"> scout </text>
</g>
<!-- monitor -->
<g id="node9" class="node">
<title>monitor</title>
<path fill="#d6e6ff" stroke="#333333" stroke-width="1.6" d="M705.5,-57C705.5,-57 556.5,-57 556.5,-57 550.5,-57 544.5,-51 544.5,-45 544.5,-45 544.5,-28 544.5,-28 544.5,-22 550.5,-16 556.5,-16 556.5,-16 705.5,-16 705.5,-16 711.5,-16 717.5,-22 717.5,-28 717.5,-28 717.5,-45 717.5,-45 717.5,-51 711.5,-57 705.5,-57"/>
<text text-anchor="start" x="622" y="-44.4" font-family="Helvetica,sans-Serif" font-size="12.00">👁️</text>
<text text-anchor="start" x="575" y="-32.4" font-family="Helvetica,sans-Serif" font-weight="bold" font-size="12.00">Position Monitor</text>
<text text-anchor="start" x="583.5" y="-22.8" font-family="Helvetica,sans-Serif" font-size="9.00">watches open trades</text>
</g>
<!-- manager&#45;&gt;monitor -->
<g id="edge6" class="edge">
<title>manager&#45;&gt;monitor</title>
<path fill="none" stroke="#a04020" stroke-width="1.8" d="M648.1,-1247.5C663.37,-1242.63 680.18,-1237.96 696,-1235.02 734.09,-1227.95 1013.07,-1237.34 1044,-1214.02 1066.39,-1197.15 1065,-1182.57 1065,-1154.52 1065,-1154.52 1065,-1154.52 1065,-163.19 1065,-131.9 1067.84,-116.26 1044,-96 997.69,-56.65 834.58,-43.75 727.73,-39.54"/>
<polygon fill="#a04020" stroke="#a04020" stroke-width="1.8" points="727.7,-36.03 717.58,-39.15 727.44,-43.03 727.7,-36.03"/>
<text text-anchor="middle" x="1085" y="-691.02" font-family="Helvetica,sans-Serif" font-size="10.00"> review </text>
</g>
<!-- analyst -->
<g id="node7" class="node">
<title>analyst</title>
<path fill="#d6e6ff" stroke="#333333" stroke-width="1.6" d="M705.5,-944.02C705.5,-944.02 556.5,-944.02 556.5,-944.02 550.5,-944.02 544.5,-938.02 544.5,-932.02 544.5,-932.02 544.5,-915.02 544.5,-915.02 544.5,-909.02 550.5,-903.02 556.5,-903.02 556.5,-903.02 705.5,-903.02 705.5,-903.02 711.5,-903.02 717.5,-909.02 717.5,-915.02 717.5,-915.02 717.5,-932.02 717.5,-932.02 717.5,-938.02 711.5,-944.02 705.5,-944.02"/>
<text text-anchor="start" x="622" y="-931.42" font-family="Helvetica,sans-Serif" font-size="12.00">🧠</text>
<text text-anchor="start" x="559.5" y="-919.42" font-family="Helvetica,sans-Serif" font-weight="bold" font-size="12.00">Fundamental Analyst</text>
<text text-anchor="start" x="569" y="-909.82" font-family="Helvetica,sans-Serif" font-size="9.00">writes thesis · cites sources</text>
</g>
<!-- triage&#45;&gt;analyst -->
<g id="edge8" class="edge">
<title>triage&#45;&gt;analyst</title>
<path fill="none" stroke="#a04020" stroke-width="2.2" d="M579.74,-1022.93C578.55,-1011.05 578.44,-995.77 583,-983.02 587.07,-971.64 594.42,-960.88 602.16,-951.77"/>
<polygon fill="#a04020" stroke="#a04020" stroke-width="2.2" points="604.89,-953.97 609,-944.21 599.7,-949.28 604.89,-953.97"/>
<text text-anchor="middle" x="594" y="-986.02" font-family="Helvetica,sans-Serif" font-size="10.00"> act </text>
</g>
<!-- triage&#45;&gt;tools -->
<g id="edge24" class="edge">
<title>triage&#45;&gt;tools</title>
<path fill="none" stroke="#3f8a4f" stroke-width="1.5" stroke-dasharray="1,5" d="M614.76,-1064.08C628.51,-1072.73 644.7,-1083.16 659,-1093.02 678.61,-1106.55 685.75,-1107.6 702,-1125.02 733.04,-1158.31 759.93,-1203.52 776.27,-1233.9"/>
<polygon fill="#3f8a4f" stroke="#3f8a4f" stroke-width="1.5" points="781,-1242.83 772.34,-1236.1 778.43,-1238.53 776.09,-1234.11 776.32,-1233.99 776.54,-1233.87 778.88,-1238.29 780.29,-1231.89 781,-1242.83 781,-1242.83"/>
</g>
<!-- auditor -->
<g id="node20" class="node">
<title>auditor</title>
<path fill="#ffc9a3" stroke="#333333" stroke-width="1.6" d="M914.06,-1397.58C914.06,-1397.58 914.06,-1406.22 914.06,-1406.22 914.06,-1410.53 909.93,-1416.12 905.81,-1417.4 905.81,-1417.4 863.11,-1430.61 863.11,-1430.61 858.98,-1431.88 850.54,-1433.16 846.23,-1433.16 846.23,-1433.16 779.77,-1433.16 779.77,-1433.16 775.46,-1433.16 767.02,-1431.88 762.89,-1430.61 762.89,-1430.61 720.19,-1417.4 720.19,-1417.4 716.07,-1416.12 711.94,-1410.53 711.94,-1406.22 711.94,-1406.22 711.94,-1397.58 711.94,-1397.58 711.94,-1393.27 716.07,-1387.68 720.19,-1386.4 720.19,-1386.4 762.89,-1373.19 762.89,-1373.19 767.02,-1371.91 775.46,-1370.64 779.77,-1370.64 779.77,-1370.64 846.23,-1370.64 846.23,-1370.64 850.54,-1370.64 858.98,-1371.91 863.11,-1373.19 863.11,-1373.19 905.81,-1386.4 905.81,-1386.4 909.93,-1387.68 914.06,-1393.27 914.06,-1397.58"/>
<text text-anchor="start" x="804" y="-1409.8" font-family="Helvetica,sans-Serif" font-size="12.00">🔍</text>
<text text-anchor="start" x="788" y="-1397.8" font-family="Helvetica,sans-Serif" font-weight="bold" font-size="12.00">Auditor</text>
<text text-anchor="start" x="755" y="-1388.2" font-family="Helvetica,sans-Serif" font-size="9.00">double&#45;checks every step</text>
</g>
<!-- triage&#45;&gt;auditor -->
<g id="edge30" class="edge">
<title>triage&#45;&gt;auditor</title>
<path fill="none" stroke="#999999" stroke-width="1.5" stroke-dasharray="5,2" d="M655.2,-1056.14C783.6,-1078.42 1043.15,-1131.39 1096,-1203.02 1126.79,-1244.77 1121.42,-1279.03 1089,-1319.52 1087.4,-1321.53 974.3,-1354.44 893.4,-1377.79"/>
<ellipse fill="none" stroke="#999999" stroke-width="1.5" cx="889.52" cy="-1378.91" rx="4" ry="4"/>
</g>
<!-- ideas&#45;&gt;triage -->
<g id="edge7" class="edge">
<title>ideas&#45;&gt;triage</title>
<path fill="none" stroke="#a04020" stroke-width="1.8" d="M608.27,-1132.71C605.73,-1123.92 602.71,-1113.46 600,-1104.02 597.19,-1094.24 594.13,-1083.55 591.39,-1073.97"/>
<polygon fill="#a04020" stroke="#a04020" stroke-width="1.8" points="594.69,-1072.75 588.58,-1064.09 587.96,-1074.67 594.69,-1072.75"/>
<text text-anchor="middle" x="627.5" y="-1096.02" font-family="Helvetica,sans-Serif" font-size="10.00"> candidate </text>
</g>
<!-- planner -->
<g id="node8" class="node">
<title>planner</title>
<path fill="#d6e6ff" stroke="#333333" stroke-width="1.6" d="M705.5,-834.02C705.5,-834.02 556.5,-834.02 556.5,-834.02 550.5,-834.02 544.5,-828.02 544.5,-822.02 544.5,-822.02 544.5,-805.02 544.5,-805.02 544.5,-799.02 550.5,-793.02 556.5,-793.02 556.5,-793.02 705.5,-793.02 705.5,-793.02 711.5,-793.02 717.5,-799.02 717.5,-805.02 717.5,-805.02 717.5,-822.02 717.5,-822.02 717.5,-828.02 711.5,-834.02 705.5,-834.02"/>
<text text-anchor="start" x="622" y="-821.42" font-family="Helvetica,sans-Serif" font-size="12.00">📝</text>
<text text-anchor="start" x="590" y="-809.42" font-family="Helvetica,sans-Serif" font-weight="bold" font-size="12.00">Plan Builder</text>
<text text-anchor="start" x="587.5" y="-799.82" font-family="Helvetica,sans-Serif" font-size="9.00">thesis → trade plan</text>
</g>
<!-- analyst&#45;&gt;planner -->
<g id="edge9" class="edge">
<title>analyst&#45;&gt;planner</title>
<path fill="none" stroke="#a04020" stroke-width="2.2" d="M631,-902.97C631,-886.63 631,-863.08 631,-844.38"/>
<polygon fill="#a04020" stroke="#a04020" stroke-width="2.2" points="634.5,-844.3 631,-834.3 627.5,-844.3 634.5,-844.3"/>
<text text-anchor="middle" x="649" y="-866.02" font-family="Helvetica,sans-Serif" font-size="10.00"> thesis </text>
</g>
<!-- analyst&#45;&gt;tools -->
<g id="edge21" class="edge">
<title>analyst&#45;&gt;tools</title>
<path fill="none" stroke="#3f8a4f" stroke-width="1.5" stroke-dasharray="1,5" d="M649.18,-944.15C664.74,-961.7 686.95,-988.67 702,-1015.02 743.57,-1087.8 771.7,-1182.97 784.72,-1232.96"/>
<polygon fill="#3f8a4f" stroke="#3f8a4f" stroke-width="1.5" points="787.27,-1242.91 780.43,-1234.34 785.79,-1238.13 784.55,-1233.29 784.79,-1233.23 785.03,-1233.16 786.27,-1238.01 789.15,-1232.11 787.27,-1242.91 787.27,-1242.91"/>
</g>
<!-- analyst&#45;&gt;auditor -->
<g id="edge27" class="edge">
<title>analyst&#45;&gt;auditor</title>
<path fill="none" stroke="#999999" stroke-width="1.5" stroke-dasharray="5,2" d="M715.83,-944.13C834.1,-976.29 1045.54,-1052.32 1148,-1203.02 1177.16,-1245.92 1187.63,-1279.2 1155,-1319.52 1090.68,-1399.01 1029.22,-1342.82 930,-1367.52 917.78,-1370.57 904.9,-1374 892.34,-1377.48"/>
<ellipse fill="none" stroke="#999999" stroke-width="1.5" cx="888.42" cy="-1378.58" rx="4" ry="4"/>
</g>
<!-- risk -->
<g id="node10" class="node">
<title>risk</title>
<path fill="#fbd0d0" stroke="#333333" stroke-width="1.6" d="M373,-714.02C373,-714.02 253,-714.02 253,-714.02 247,-714.02 241,-708.02 241,-702.02 241,-702.02 241,-685.02 241,-685.02 241,-679.02 247,-673.02 253,-673.02 253,-673.02 373,-673.02 373,-673.02 379,-673.02 385,-679.02 385,-685.02 385,-685.02 385,-702.02 385,-702.02 385,-708.02 379,-714.02 373,-714.02"/>
<text text-anchor="start" x="304" y="-701.42" font-family="Helvetica,sans-Serif" font-size="12.00">🛡️</text>
<text text-anchor="start" x="273.5" y="-689.42" font-family="Helvetica,sans-Serif" font-weight="bold" font-size="12.00">Risk Officer</text>
<text text-anchor="start" x="282.5" y="-679.82" font-family="Helvetica,sans-Serif" font-size="9.00">policy checks</text>
</g>
<!-- planner&#45;&gt;risk -->
<g id="edge10" class="edge">
<title>planner&#45;&gt;risk</title>
<path fill="none" stroke="#a04020" stroke-width="2.2" d="M578.13,-792.91C522.34,-772.2 434.46,-739.59 375.33,-717.65"/>
<polygon fill="#a04020" stroke="#a04020" stroke-width="2.2" points="376.32,-714.29 365.73,-714.09 373.89,-720.85 376.32,-714.29"/>
<text text-anchor="middle" x="505.5" y="-756.02" font-family="Helvetica,sans-Serif" font-size="10.00"> draft </text>
</g>
<!-- planner&#45;&gt;tools -->
<g id="edge22" class="edge">
<title>planner&#45;&gt;tools</title>
<path fill="none" stroke="#3f8a4f" stroke-width="1.5" stroke-dasharray="1,5" d="M663.34,-834.14C686.53,-849.9 716.63,-874.13 734,-903.02 798.18,-1009.79 798.88,-1164.56 795.52,-1232.67"/>
<polygon fill="#3f8a4f" stroke="#3f8a4f" stroke-width="1.5" points="794.96,-1242.83 791.02,-1232.6 794.99,-1237.83 795.26,-1232.84 795.51,-1232.85 795.76,-1232.86 795.49,-1237.86 800.01,-1233.1 794.96,-1242.83 794.96,-1242.83"/>
</g>
<!-- planner&#45;&gt;auditor -->
<g id="edge28" class="edge">
<title>planner&#45;&gt;auditor</title>
<path fill="none" stroke="#999999" stroke-width="1.5" stroke-dasharray="5,2" d="M707.55,-834.04C855.55,-876.93 1170.84,-995.25 1221,-1235.02 1228.69,-1271.78 1245.3,-1290.89 1221,-1319.52 1178.59,-1369.5 993.95,-1353.18 930,-1367.52 917.45,-1370.34 904.26,-1373.7 891.44,-1377.19"/>
<ellipse fill="none" stroke="#999999" stroke-width="1.5" cx="887.36" cy="-1378.32" rx="4" ry="4"/>
</g>
<!-- monitor&#45;&gt;tools -->
<g id="edge25" class="edge">
<title>monitor&#45;&gt;tools</title>
<path fill="none" stroke="#3f8a4f" stroke-width="1.5" stroke-dasharray="1,5" d="M717.71,-48.07C788.22,-58.01 880.93,-74.56 912,-96 966.4,-133.54 973.48,-157.92 992,-221.38 1054.24,-434.62 993.17,-1026.56 874,-1214.02 868.4,-1222.84 860.74,-1230.49 852.36,-1237.04"/>
<polygon fill="#3f8a4f" stroke="#3f8a4f" stroke-width="1.5" points="844.15,-1242.97 849.62,-1233.47 848.05,-1239.84 852.11,-1236.91 852.25,-1237.12 852.4,-1237.32 848.35,-1240.25 854.89,-1240.76 844.15,-1242.97 844.15,-1242.97"/>
</g>
<!-- monitor&#45;&gt;auditor -->
<g id="edge31" class="edge">
<title>monitor&#45;&gt;auditor</title>
<path fill="none" stroke="#999999" stroke-width="1.5" stroke-dasharray="5,2" d="M717.55,-38.4C835.27,-41.27 1037.91,-52.59 1096,-96 1198.79,-172.82 1276.84,-1107.1 1287,-1235.02 1289.97,-1272.46 1311.12,-1290.74 1287,-1319.52 1235.58,-1380.88 1008.5,-1351.88 930,-1367.52 917.13,-1370.09 903.62,-1373.37 890.54,-1376.88"/>
<ellipse fill="none" stroke="#999999" stroke-width="1.5" cx="886.32" cy="-1378.03" rx="4" ry="4"/>
</g>
<!-- supervisor -->
<g id="node11" class="node">
<title>supervisor</title>
<path fill="#fbd0d0" stroke="#333333" stroke-width="1.6" d="M373,-604.02C373,-604.02 253,-604.02 253,-604.02 247,-604.02 241,-598.02 241,-592.02 241,-592.02 241,-575.02 241,-575.02 241,-569.02 247,-563.02 253,-563.02 253,-563.02 373,-563.02 373,-563.02 379,-563.02 385,-569.02 385,-575.02 385,-575.02 385,-592.02 385,-592.02 385,-598.02 379,-604.02 373,-604.02"/>
<text text-anchor="start" x="304" y="-591.42" font-family="Helvetica,sans-Serif" font-size="12.00">🎓</text>
<text text-anchor="start" x="259.5" y="-579.42" font-family="Helvetica,sans-Serif" font-weight="bold" font-size="12.00">Plan Supervisor</text>
<text text-anchor="start" x="287" y="-569.82" font-family="Helvetica,sans-Serif" font-size="9.00">final review</text>
</g>
<!-- risk&#45;&gt;supervisor -->
<g id="edge11" class="edge">
<title>risk&#45;&gt;supervisor</title>
<path fill="none" stroke="#a04020" stroke-width="2" d="M313,-672.97C313,-656.63 313,-633.08 313,-614.38"/>
<polygon fill="#a04020" stroke="#a04020" stroke-width="2" points="316.5,-614.3 313,-604.3 309.5,-614.3 316.5,-614.3"/>
<text text-anchor="middle" x="327.5" y="-636.02" font-family="Helvetica,sans-Serif" font-size="10.00"> pass </text>
</g>
<!-- risk&#45;&gt;tools -->
<g id="edge23" class="edge">
<title>risk&#45;&gt;tools</title>
<path fill="none" stroke="#3f8a4f" stroke-width="1.5" stroke-dasharray="1,5" d="M385.19,-695.35C551.7,-698.01 951.58,-708.97 992,-753.02 1061.34,-828.59 1033.23,-1133.28 970,-1214.02 949.03,-1240.8 915.07,-1254.49 882.47,-1261.34"/>
<polygon fill="#3f8a4f" stroke="#3f8a4f" stroke-width="1.5" points="872.41,-1263.25 881.4,-1256.96 877.28,-1262.07 882.19,-1261.14 882.24,-1261.38 882.29,-1261.63 877.37,-1262.56 883.08,-1265.8 872.41,-1263.25 872.41,-1263.25"/>
</g>
<!-- risk&#45;&gt;auditor -->
<g id="edge29" class="edge">
<title>risk&#45;&gt;auditor</title>
<path fill="none" stroke="#999999" stroke-width="1.5" stroke-dasharray="5,2" d="M385.23,-700.14C513.82,-710.03 790.91,-730.84 1025,-745.02 1042.66,-746.09 1169.03,-743.6 1184,-753.02 1296.06,-823.63 1277.74,-891.68 1326,-1015.02 1375.51,-1141.55 1443.84,-1218.49 1353,-1319.52 1289.75,-1389.87 1022.8,-1349.15 930,-1367.52 917.13,-1370.07 903.62,-1373.35 890.53,-1376.85"/>
<ellipse fill="none" stroke="#999999" stroke-width="1.5" cx="886.31" cy="-1378" rx="4" ry="4"/>
</g>
<!-- operator -->
<g id="node12" class="node">
<title>operator</title>
<path fill="#ffd1d1" stroke="#333333" stroke-width="2.2" d="M375.76,-460.49C375.76,-460.49 341.68,-486.56 341.68,-486.56 336.91,-490.2 326.14,-493.85 320.14,-493.85 320.14,-493.85 237.86,-493.85 237.86,-493.85 231.86,-493.85 221.09,-490.2 216.32,-486.56 216.32,-486.56 182.24,-460.49 182.24,-460.49 177.48,-456.85 177.48,-449.55 182.24,-445.91 182.24,-445.91 216.32,-419.84 216.32,-419.84 221.09,-416.19 231.86,-412.55 237.86,-412.55 237.86,-412.55 320.14,-412.55 320.14,-412.55 326.14,-412.55 336.91,-416.19 341.68,-419.84 341.68,-419.84 375.76,-445.91 375.76,-445.91 380.52,-449.55 380.52,-456.85 375.76,-460.49"/>
<text text-anchor="start" x="270" y="-465.6" font-family="Helvetica,sans-Serif" font-size="12.00">🙋</text>
<text text-anchor="start" x="222" y="-453.6" font-family="Helvetica,sans-Serif" font-weight="bold" font-size="12.00">Human Operator</text>
<text text-anchor="start" x="233.5" y="-444" font-family="Helvetica,sans-Serif" font-size="9.00">approves big trades</text>
<text text-anchor="start" x="265" y="-435" font-family="Helvetica,sans-Serif" font-size="9.00">(HITL)</text>
</g>
<!-- supervisor&#45;&gt;operator -->
<g id="edge12" class="edge">
<title>supervisor&#45;&gt;operator</title>
<path fill="none" stroke="#b13838" stroke-width="2" d="M307.76,-562.76C303.6,-547.05 297.59,-524.37 292.14,-503.81"/>
<polygon fill="#b13838" stroke="#b13838" stroke-width="2" points="295.47,-502.69 289.52,-493.92 288.7,-504.48 295.47,-502.69"/>
<text text-anchor="middle" x="326.5" y="-526.02" font-family="Helvetica,sans-Serif" font-size="10.00"> needs OK </text>
</g>
<!-- execute -->
<g id="node13" class="node">
<title>execute</title>
<path fill="#caeed1" stroke="#333333" stroke-width="1.6" d="M508.03,-333.38C508.03,-333.38 396.77,-333.38 396.77,-333.38 390.77,-333.38 382.42,-327.85 380.08,-322.33 380.08,-322.33 354.66,-262.42 354.66,-262.42 352.32,-256.9 355.97,-251.38 361.97,-251.38 361.97,-251.38 473.23,-251.38 473.23,-251.38 479.23,-251.38 487.58,-256.9 489.92,-262.42 489.92,-262.42 515.34,-322.33 515.34,-322.33 517.68,-327.85 514.03,-333.38 508.03,-333.38"/>
<text text-anchor="start" x="429.5" y="-300.27" font-family="Helvetica,sans-Serif" font-size="12.00">⚙️</text>
<text text-anchor="start" x="402" y="-288.27" font-family="Helvetica,sans-Serif" font-weight="bold" font-size="12.00">Execution</text>
<text text-anchor="start" x="404.5" y="-278.67" font-family="Helvetica,sans-Serif" font-size="9.00">simulates fills</text>
</g>
<!-- supervisor&#45;&gt;execute -->
<g id="edge13" class="edge">
<title>supervisor&#45;&gt;execute</title>
<path fill="none" stroke="#a04020" stroke-width="2" d="M339.28,-562.87C359.18,-546.58 385.65,-521.68 401,-494.02 426.82,-447.51 434.03,-386.29 435.59,-343.76"/>
<polygon fill="#a04020" stroke="#a04020" stroke-width="2" points="439.09,-343.73 435.86,-333.64 432.09,-343.54 439.09,-343.73"/>
<text text-anchor="middle" x="462.5" y="-450.7" font-family="Helvetica,sans-Serif" font-size="10.00"> autonomous </text>
</g>
<!-- operator&#45;&gt;execute -->
<g id="edge14" class="edge">
<title>operator&#45;&gt;execute</title>
<path fill="none" stroke="#b13838" stroke-width="2.2" d="M317.96,-412.53C339.3,-390.81 365.88,-363.74 388.32,-340.9"/>
<polygon fill="#b13838" stroke="#b13838" stroke-width="2.2" points="390.94,-343.23 395.45,-333.64 385.95,-338.32 390.94,-343.23"/>
<text text-anchor="middle" x="388" y="-375.38" font-family="Helvetica,sans-Serif" font-size="10.00"> ✅ approve </text>
</g>
<!-- ledger -->
<g id="node14" class="node">
<title>ledger</title>
<path fill="#b9e6c2" stroke="#333333" stroke-width="1.6" d="M511,-187.4C511,-190.25 475.59,-192.56 432,-192.56 388.41,-192.56 353,-190.25 353,-187.4 353,-187.4 353,-140.97 353,-140.97 353,-138.12 388.41,-135.81 432,-135.81 475.59,-135.81 511,-138.12 511,-140.97 511,-140.97 511,-187.4 511,-187.4"/>
<path fill="none" stroke="#333333" stroke-width="1.6" d="M511,-187.4C511,-184.56 475.59,-182.25 432,-182.25 388.41,-182.25 353,-184.56 353,-187.4"/>
<text text-anchor="start" x="423" y="-172.09" font-family="Helvetica,sans-Serif" font-size="12.00">📒</text>
<text text-anchor="start" x="396.5" y="-160.09" font-family="Helvetica,sans-Serif" font-weight="bold" font-size="12.00">The Books</text>
<text text-anchor="start" x="379.5" y="-150.49" font-family="Helvetica,sans-Serif" font-size="9.00">holdings · P&amp;L · journal</text>
</g>
<!-- operator&#45;&gt;ledger -->
<g id="edge15" class="edge">
<title>operator&#45;&gt;ledger</title>
<path fill="none" stroke="#b13838" stroke-width="1.5" stroke-dasharray="5,2" d="M269.27,-412.5C261.06,-369.6 254.79,-300.75 284,-251.38 298.56,-226.76 323.07,-208.47 348,-195.24"/>
<polygon fill="#b13838" stroke="#b13838" stroke-width="1.5" points="349.85,-198.23 357.19,-190.59 346.69,-191.98 349.85,-198.23"/>
<text text-anchor="middle" x="309" y="-289.88" font-family="Helvetica,sans-Serif" font-size="10.00"> ❌ reject </text>
</g>
<!-- execute&#45;&gt;ledger -->
<g id="edge16" class="edge">
<title>execute&#45;&gt;ledger</title>
<path fill="none" stroke="#555555" stroke-width="2" d="M434.04,-251.1C433.67,-235.63 433.26,-218.04 432.89,-202.83"/>
<polygon fill="#555555" stroke="#555555" stroke-width="2" points="436.39,-202.64 432.65,-192.73 429.39,-202.81 436.39,-202.64"/>
</g>
<!-- ledger&#45;&gt;monitor -->
<g id="edge17" class="edge">
<title>ledger&#45;&gt;monitor</title>
<path fill="none" stroke="#555555" stroke-width="1.5" stroke-dasharray="5,2" d="M475.18,-135.92C509.7,-114.11 557.71,-83.79 591.29,-62.58"/>
<polygon fill="#555555" stroke="#555555" stroke-width="1.5" points="593.34,-65.43 599.93,-57.13 589.6,-59.51 593.34,-65.43"/>
<text text-anchor="middle" x="576" y="-99" font-family="Helvetica,sans-Serif" font-size="10.00"> open positions </text>
</g>
<!-- excel -->
<g id="node15" class="node">
<title>excel</title>
<polygon fill="#e1d3f5" stroke="#333333" stroke-width="1.6" points="160,-57 157,-61 136,-61 133,-57 16,-57 16,-16 160,-16 160,-57"/>
<text text-anchor="start" x="79" y="-44.4" font-family="Helvetica,sans-Serif" font-size="12.00">📊</text>
<text text-anchor="start" x="51.5" y="-32.4" font-family="Helvetica,sans-Serif" font-weight="bold" font-size="12.00">Daily Excel</text>
<text text-anchor="start" x="40.5" y="-22.8" font-family="Helvetica,sans-Serif" font-size="9.00">end&#45;of&#45;day summary</text>
</g>
<!-- ledger&#45;&gt;excel -->
<g id="edge18" class="edge">
<title>ledger&#45;&gt;excel</title>
<path fill="none" stroke="#7a4fb0" stroke-width="1.5" d="M352.75,-145.05C301.31,-132.04 233.41,-112.5 176,-88 159.36,-80.9 141.91,-71.37 126.98,-62.5"/>
<polygon fill="#7a4fb0" stroke="#7a4fb0" stroke-width="1.5" points="128.41,-59.28 118.04,-57.1 124.78,-65.27 128.41,-59.28"/>
</g>
<!-- web -->
<g id="node16" class="node">
<title>web</title>
<polygon fill="#e1d3f5" stroke="#333333" stroke-width="1.6" points="336,-57 333,-61 312,-61 309,-57 192,-57 192,-16 336,-16 336,-57"/>
<text text-anchor="start" x="255" y="-44.4" font-family="Helvetica,sans-Serif" font-size="12.00">🖥️</text>
<text text-anchor="start" x="210.5" y="-32.4" font-family="Helvetica,sans-Serif" font-weight="bold" font-size="12.00">Web Dashboard</text>
<text text-anchor="start" x="233.5" y="-22.8" font-family="Helvetica,sans-Serif" font-size="9.00">live firm view</text>
</g>
<!-- ledger&#45;&gt;web -->
<g id="edge19" class="edge">
<title>ledger&#45;&gt;web</title>
<path fill="none" stroke="#7a4fb0" stroke-width="1.5" d="M395.55,-135.92C366.65,-114.3 326.56,-84.3 298.25,-63.12"/>
<polygon fill="#7a4fb0" stroke="#7a4fb0" stroke-width="1.5" points="300.34,-60.31 290.23,-57.13 296.14,-65.92 300.34,-60.31"/>
</g>
<!-- logs -->
<g id="node17" class="node">
<title>logs</title>
<polygon fill="#e1d3f5" stroke="#333333" stroke-width="1.6" points="512,-57 509,-61 488,-61 485,-57 368,-57 368,-16 512,-16 512,-57"/>
<text text-anchor="start" x="431" y="-44.4" font-family="Helvetica,sans-Serif" font-size="12.00">📝</text>
<text text-anchor="start" x="405" y="-32.4" font-family="Helvetica,sans-Serif" font-weight="bold" font-size="12.00">JSON Logs</text>
<text text-anchor="start" x="399" y="-22.8" font-family="Helvetica,sans-Serif" font-size="9.00">structured events</text>
</g>
<!-- ledger&#45;&gt;logs -->
<g id="edge20" class="edge">
<title>ledger&#45;&gt;logs</title>
<path fill="none" stroke="#7a4fb0" stroke-width="1.5" d="M433.74,-135.92C435.02,-115.75 436.77,-88.3 438.09,-67.51"/>
<polygon fill="#7a4fb0" stroke="#7a4fb0" stroke-width="1.5" points="441.6,-67.52 438.74,-57.32 434.61,-67.08 441.6,-67.52"/>
</g>
<!-- rag -->
<g id="node18" class="node">
<title>rag</title>
<path fill="#c8ecd0" stroke="#333333" stroke-width="1.6" d="M1104,-1429.92C1104,-1433.36 1068.59,-1436.15 1025,-1436.15 981.41,-1436.15 946,-1433.36 946,-1429.92 946,-1429.92 946,-1373.88 946,-1373.88 946,-1370.44 981.41,-1367.65 1025,-1367.65 1068.59,-1367.65 1104,-1370.44 1104,-1373.88 1104,-1373.88 1104,-1429.92 1104,-1429.92"/>
<path fill="none" stroke="#333333" stroke-width="1.6" d="M1104,-1429.92C1104,-1426.49 1068.59,-1423.7 1025,-1423.7 981.41,-1423.7 946,-1426.49 946,-1429.92"/>
<text text-anchor="start" x="1016" y="-1414.3" font-family="Helvetica,sans-Serif" font-size="12.00">📚</text>
<text text-anchor="start" x="965" y="-1402.3" font-family="Helvetica,sans-Serif" font-weight="bold" font-size="12.00">The Library (RAG)</text>
<text text-anchor="start" x="990" y="-1392.7" font-family="Helvetica,sans-Serif" font-size="9.00">policies · filings</text>
<text text-anchor="start" x="985.5" y="-1383.7" font-family="Helvetica,sans-Serif" font-size="9.00">news · past plans</text>
</g>
<!-- tools&#45;&gt;rag -->
<g id="edge26" class="edge">
<title>tools&#45;&gt;rag</title>
<path fill="none" stroke="#3f8a4f" stroke-width="1.5" stroke-dasharray="1,5" d="M835.34,-1293.09C870,-1312.79 919.61,-1340.99 959.4,-1363.61"/>
<polygon fill="#3f8a4f" stroke="#3f8a4f" stroke-width="1.5" points="968.25,-1368.64 957.33,-1367.61 963.78,-1366.39 959.43,-1363.91 959.55,-1363.7 959.68,-1363.48 964.02,-1365.95 961.78,-1359.79 968.25,-1368.64 968.25,-1368.64"/>
</g>
</g>
</svg>
