<?xml version="1.0" encoding="UTF-8" standalone="no"?>
<!DOCTYPE svg PUBLIC "-//W3C//DTD SVG 1.1//EN"
 "http://www.w3.org/Graphics/SVG/1.1/DTD/svg11.dtd">
<!-- Generated by graphviz version 2.43.0 (0)
 -->
<!-- Title: horizon_capital_abstract Pages: 1 -->
<svg width="1612pt" height="1032pt"
 viewBox="0.00 0.00 1612.10 1031.72" xmlns="http://www.w3.org/2000/svg" xmlns:xlink="http://www.w3.org/1999/xlink">
<g id="graph0" class="graph" transform="scale(1 1) rotate(0) translate(28.8 1002.92)">
<title>horizon_capital_abstract</title>
<polygon fill="white" stroke="transparent" points="-28.8,28.8 -28.8,-1002.92 1583.3,-1002.92 1583.3,28.8 -28.8,28.8"/>
<text text-anchor="start" x="560.25" y="-956.73" font-family="Helvetica,sans-Serif" font-weight="bold" font-size="18.00">Horizon Capital — Multi&#45;Agent Architecture</text>
<g id="clust4" class="cluster">
<title>cluster_legend</title>
<path fill="#fafafa" stroke="#cccccc" d="M1350.5,-651.25C1350.5,-651.25 1534.5,-651.25 1534.5,-651.25 1540.5,-651.25 1546.5,-657.25 1546.5,-663.25 1546.5,-663.25 1546.5,-926.12 1546.5,-926.12 1546.5,-932.12 1540.5,-938.12 1534.5,-938.12 1534.5,-938.12 1350.5,-938.12 1350.5,-938.12 1344.5,-938.12 1338.5,-932.12 1338.5,-926.12 1338.5,-926.12 1338.5,-663.25 1338.5,-663.25 1338.5,-657.25 1344.5,-651.25 1350.5,-651.25"/>
<text text-anchor="middle" x="1442.5" y="-925.33" font-family="Helvetica,sans-Serif" font-size="11.00">Legend</text>
</g>
<!-- inputs -->
<g id="node1" class="node">
<title>inputs</title>
<polygon fill="#fff7d6" stroke="#444444" stroke-width="1.4" points="446,-904.75 265,-904.75 265,-868.75 452,-868.75 452,-898.75 446,-904.75"/>
<polyline fill="none" stroke="#444444" stroke-width="1.4" points="446,-904.75 446,-898.75 "/>
<polyline fill="none" stroke="#444444" stroke-width="1.4" points="452,-898.75 446,-898.75 "/>
<text text-anchor="start" x="337" y="-889.15" font-family="Helvetica,sans-Serif" font-weight="bold" font-size="12.00">Inputs</text>
<text text-anchor="start" x="281.5" y="-878.75" font-family="Helvetica,sans-Serif" font-size="10.00">news · scheduler tick · operator</text>
</g>
<!-- pm -->
<g id="node2" class="node">
<title>pm</title>
<polygon fill="#ffd9b3" stroke="#444444" stroke-width="1.4" points="306.5,-800.25 108.5,-800.25 104.5,-796.25 104.5,-764.25 302.5,-764.25 306.5,-768.25 306.5,-800.25"/>
<polyline fill="none" stroke="#444444" stroke-width="1.4" points="302.5,-796.25 104.5,-796.25 "/>
<polyline fill="none" stroke="#444444" stroke-width="1.4" points="302.5,-796.25 302.5,-764.25 "/>
<polyline fill="none" stroke="#444444" stroke-width="1.4" points="302.5,-796.25 306.5,-800.25 "/>
<text text-anchor="start" x="144" y="-784.65" font-family="Helvetica,sans-Serif" font-weight="bold" font-size="12.00">Portfolio Manager</text>
<text text-anchor="start" x="140.5" y="-774.25" font-family="Helvetica,sans-Serif" font-size="10.00">policy + routing, no trades</text>
</g>
<!-- inputs&#45;&gt;pm -->
<g id="edge1" class="edge">
<title>inputs&#45;&gt;pm</title>
<path fill="none" stroke="#999999" stroke-width="1.3" stroke-dasharray="5,2" d="M332.89,-868.59C307.22,-851.4 267.55,-824.82 239.31,-805.9"/>
<polygon fill="#999999" stroke="#999999" stroke-width="1.3" points="241.19,-802.95 230.94,-800.29 237.3,-808.76 241.19,-802.95"/>
</g>
<!-- triage -->
<g id="node3" class="node">
<title>triage</title>
<path fill="#ffe2c2" stroke="#444444" stroke-width="1.4" d="M565,-695.25C565,-695.25 416,-695.25 416,-695.25 410,-695.25 404,-689.25 404,-683.25 404,-683.25 404,-671.25 404,-671.25 404,-665.25 410,-659.25 416,-659.25 416,-659.25 565,-659.25 565,-659.25 571,-659.25 577,-665.25 577,-671.25 577,-671.25 577,-683.25 577,-683.25 577,-689.25 571,-695.25 565,-695.25"/>
<text text-anchor="start" x="449" y="-679.65" font-family="Helvetica,sans-Serif" font-weight="bold" font-size="12.00">News Triage</text>
<text text-anchor="start" x="448.5" y="-669.25" font-family="Helvetica,sans-Serif" font-size="10.00">materiality score</text>
</g>
<!-- inputs&#45;&gt;triage -->
<g id="edge2" class="edge">
<title>inputs&#45;&gt;triage</title>
<path fill="none" stroke="#a04020" stroke-width="2" d="M364.85,-868.58C376.73,-837.76 404.42,-771.87 440.5,-724.25 446.36,-716.52 453.61,-709.01 460.76,-702.37"/>
<polygon fill="#a04020" stroke="#a04020" stroke-width="2" points="463.28,-704.82 468.41,-695.55 458.62,-699.59 463.28,-704.82"/>
</g>
<!-- ideas -->
<g id="node4" class="node">
<title>ideas</title>
<path fill="#ffe2c2" stroke="#444444" stroke-width="1.4" d="M280,-695.25C280,-695.25 131,-695.25 131,-695.25 125,-695.25 119,-689.25 119,-683.25 119,-683.25 119,-671.25 119,-671.25 119,-665.25 125,-659.25 131,-659.25 131,-659.25 280,-659.25 280,-659.25 286,-659.25 292,-665.25 292,-671.25 292,-671.25 292,-683.25 292,-683.25 292,-689.25 286,-695.25 280,-695.25"/>
<text text-anchor="start" x="154" y="-679.65" font-family="Helvetica,sans-Serif" font-weight="bold" font-size="12.00">Idea Generator</text>
<text text-anchor="start" x="169.5" y="-669.25" font-family="Helvetica,sans-Serif" font-size="10.00">proactive scan</text>
</g>
<!-- pm&#45;&gt;ideas -->
<g id="edge3" class="edge">
<title>pm&#45;&gt;ideas</title>
<path fill="none" stroke="#666666" stroke-width="1.3" d="M205.5,-764.24C205.5,-748.29 205.5,-724.16 205.5,-705.52"/>
<polygon fill="#666666" stroke="#666666" stroke-width="1.3" points="209,-705.28 205.5,-695.28 202,-705.28 209,-705.28"/>
<text text-anchor="middle" x="229" y="-727.25" font-family="Helvetica,sans-Serif" font-size="10.00">scan task</text>
</g>
<!-- monitor -->
<g id="node11" class="node">
<title>monitor</title>
<path fill="#ffe2c2" stroke="#444444" stroke-width="1.4" d="M175,-36C175,-36 12,-36 12,-36 6,-36 0,-30 0,-24 0,-24 0,-12 0,-12 0,-6 6,0 12,0 12,0 175,0 175,0 181,0 187,-6 187,-12 187,-12 187,-24 187,-24 187,-30 181,-36 175,-36"/>
<text text-anchor="start" x="37.5" y="-20.4" font-family="Helvetica,sans-Serif" font-weight="bold" font-size="12.00">Position Monitor</text>
<text text-anchor="start" x="24" y="-10" font-family="Helvetica,sans-Serif" font-size="10.00">guardrails on open positions</text>
</g>
<!-- pm&#45;&gt;monitor -->
<g id="edge4" class="edge">
<title>pm&#45;&gt;monitor</title>
<path fill="none" stroke="#666666" stroke-width="1.3" d="M146.92,-764.22C107.81,-748.84 63.5,-721.8 63.5,-678.25 63.5,-678.25 63.5,-678.25 63.5,-124.62 63.5,-96.94 73.16,-66.67 81.51,-45.66"/>
<polygon fill="#666666" stroke="#666666" stroke-width="1.3" points="84.86,-46.72 85.46,-36.14 78.4,-44.04 84.86,-46.72"/>
<text text-anchor="middle" x="92.5" y="-412.25" font-family="Helvetica,sans-Serif" font-size="10.00">review task</text>
</g>
<!-- audit -->
<g id="node12" class="node">
<title>audit</title>
<path fill="#ffc9a3" stroke="#444444" stroke-width="1.4" d="M758.94,-883.66C758.94,-883.66 758.94,-889.84 758.94,-889.84 758.94,-892.93 755.89,-896.53 752.84,-897.03 752.84,-897.03 685.7,-908.13 685.7,-908.13 682.65,-908.64 676.51,-909.14 673.42,-909.14 673.42,-909.14 573.58,-909.14 573.58,-909.14 570.49,-909.14 564.35,-908.64 561.3,-908.13 561.3,-908.13 494.16,-897.03 494.16,-897.03 491.11,-896.53 488.06,-892.93 488.06,-889.84 488.06,-889.84 488.06,-883.66 488.06,-883.66 488.06,-880.57 491.11,-876.97 494.16,-876.47 494.16,-876.47 561.3,-865.37 561.3,-865.37 564.35,-864.86 570.49,-864.36 573.58,-864.36 573.58,-864.36 673.42,-864.36 673.42,-864.36 676.51,-864.36 682.65,-864.86 685.7,-865.37 685.7,-865.37 752.84,-876.47 752.84,-876.47 755.89,-876.97 758.94,-880.57 758.94,-883.66"/>
<text text-anchor="start" x="598.5" y="-888.65" font-family="Helvetica,sans-Serif" font-weight="bold" font-size="12.00">Auditor</text>
<text text-anchor="start" x="543" y="-879.05" font-family="Helvetica,sans-Serif" font-size="9.00">side&#45;channel · runs after every step</text>
</g>
<!-- pm&#45;&gt;audit -->
<g id="edge30" class="edge">
<title>pm&#45;&gt;audit</title>
<path fill="none" stroke="#888888" stroke-width="1.3" stroke-dasharray="5,2" d="M275.07,-800.31C348.2,-818.24 463.21,-846.44 540.9,-865.5"/>
<ellipse fill="none" stroke="#888888" stroke-width="1.3" cx="544.89" cy="-866.47" rx="4" ry="4"/>
</g>
<!-- tools -->
<g id="node14" class="node">
<title>tools</title>
<polygon fill="#e1d3f5" stroke="#7a4fb0" stroke-width="1.4" points="952.5,-906.75 949.5,-910.75 928.5,-910.75 925.5,-906.75 794.5,-906.75 794.5,-866.75 952.5,-866.75 952.5,-906.75"/>
<text text-anchor="start" x="856" y="-894.15" font-family="Helvetica,sans-Serif" font-weight="bold" font-size="12.00">Tools</text>
<text text-anchor="start" x="821.5" y="-883.75" font-family="Helvetica,sans-Serif" font-size="10.00">market data · dossier</text>
<text text-anchor="start" x="810.5" y="-873.75" font-family="Helvetica,sans-Serif" font-size="10.00">simulate_order · search_*</text>
</g>
<!-- pm&#45;&gt;tools -->
<g id="edge22" class="edge">
<title>pm&#45;&gt;tools</title>
<path fill="none" stroke="#7a4fb0" stroke-width="1.3" d="M306.75,-792.57C421.42,-804.09 613.54,-826.3 776.5,-859.25 783.76,-860.72 791.27,-862.43 798.76,-864.26"/>
<polygon fill="#7a4fb0" stroke="#7a4fb0" stroke-width="1.3" points="808.57,-866.72 797.77,-868.65 803.68,-865.65 798.83,-864.43 798.87,-864.28 798.9,-864.14 803.75,-865.36 799.97,-859.92 808.57,-866.72 808.57,-866.72"/>
</g>
<!-- fund -->
<g id="node5" class="node">
<title>fund</title>
<path fill="#ffe2c2" stroke="#444444" stroke-width="1.4" d="M576.5,-590.25C576.5,-590.25 398.5,-590.25 398.5,-590.25 392.5,-590.25 386.5,-584.25 386.5,-578.25 386.5,-578.25 386.5,-566.25 386.5,-566.25 386.5,-560.25 392.5,-554.25 398.5,-554.25 398.5,-554.25 576.5,-554.25 576.5,-554.25 582.5,-554.25 588.5,-560.25 588.5,-566.25 588.5,-566.25 588.5,-578.25 588.5,-578.25 588.5,-584.25 582.5,-590.25 576.5,-590.25"/>
<text text-anchor="start" x="416" y="-574.65" font-family="Helvetica,sans-Serif" font-weight="bold" font-size="12.00">Fundamental Analyst</text>
<text text-anchor="start" x="446.5" y="-564.25" font-family="Helvetica,sans-Serif" font-size="10.00">thesis + sources</text>
</g>
<!-- triage&#45;&gt;fund -->
<g id="edge6" class="edge">
<title>triage&#45;&gt;fund</title>
<path fill="none" stroke="#a04020" stroke-width="2.2" d="M490,-659.24C489.54,-643.29 488.84,-619.16 488.29,-600.52"/>
<polygon fill="#a04020" stroke="#a04020" stroke-width="2.2" points="491.79,-600.18 488,-590.28 484.79,-600.38 491.79,-600.18"/>
<text text-anchor="middle" x="497.5" y="-622.25" font-family="Helvetica,sans-Serif" font-size="10.00">act</text>
</g>
<!-- triage&#45;&gt;audit -->
<g id="edge24" class="edge">
<title>triage&#45;&gt;audit</title>
<path fill="none" stroke="#888888" stroke-width="1.3" stroke-dasharray="5,2" d="M488.78,-695.64C486.71,-726.01 486.65,-789.39 516.5,-830.25 526.01,-843.27 539.49,-853.49 553.69,-861.4"/>
<ellipse fill="none" stroke="#888888" stroke-width="1.3" cx="557.63" cy="-863.47" rx="4" ry="4"/>
</g>
<!-- triage&#45;&gt;tools -->
<g id="edge16" class="edge">
<title>triage&#45;&gt;tools</title>
<path fill="none" stroke="#7a4fb0" stroke-width="1.3" d="M521.96,-695.3C589.94,-732.12 750.67,-819.21 829.02,-861.65"/>
<polygon fill="#7a4fb0" stroke="#7a4fb0" stroke-width="1.3" points="838.15,-866.6 827.22,-865.79 833.69,-864.35 829.29,-861.97 829.36,-861.84 829.43,-861.71 833.83,-864.09 831.51,-857.88 838.15,-866.6 838.15,-866.6"/>
</g>
<!-- ideas&#45;&gt;triage -->
<g id="edge5" class="edge">
<title>ideas&#45;&gt;triage</title>
<path fill="none" stroke="#666666" stroke-width="1.3" d="M292.17,-677.25C324.23,-677.25 360.76,-677.25 393.67,-677.25"/>
<polygon fill="#666666" stroke="#666666" stroke-width="1.3" points="393.75,-680.75 403.75,-677.25 393.75,-673.75 393.75,-680.75"/>
<text text-anchor="middle" x="348" y="-683.25" font-family="Helvetica,sans-Serif" font-size="10.00">synthetic event</text>
</g>
<!-- ideas&#45;&gt;audit -->
<g id="edge29" class="edge">
<title>ideas&#45;&gt;audit</title>
<path fill="none" stroke="#888888" stroke-width="1.3" stroke-dasharray="5,2" d="M241.18,-695.47C298.67,-723.29 415.3,-779.96 513.5,-829.25 533.83,-839.45 556.18,-850.89 575.39,-860.79"/>
<ellipse fill="none" stroke="#888888" stroke-width="1.3" cx="579.03" cy="-862.67" rx="4" ry="4"/>
</g>
<!-- ideas&#45;&gt;tools -->
<g id="edge17" class="edge">
<title>ideas&#45;&gt;tools</title>
<path fill="none" stroke="#7a4fb0" stroke-width="1.3" d="M292.13,-689.34C411.01,-706.96 629.22,-748 798.5,-829.25 815.17,-837.25 831.8,-849.26 845.14,-860.15"/>
<polygon fill="#7a4fb0" stroke="#7a4fb0" stroke-width="1.3" points="853,-866.74 842.45,-863.76 849.07,-863.64 845.24,-860.43 845.34,-860.31 845.44,-860.2 849.27,-863.41 848.23,-856.86 853,-866.74 853,-866.74"/>
</g>
<!-- plan -->
<g id="node6" class="node">
<title>plan</title>
<path fill="#ffe2c2" stroke="#444444" stroke-width="1.4" d="M571.5,-485.25C571.5,-485.25 393.5,-485.25 393.5,-485.25 387.5,-485.25 381.5,-479.25 381.5,-473.25 381.5,-473.25 381.5,-461.25 381.5,-461.25 381.5,-455.25 387.5,-449.25 393.5,-449.25 393.5,-449.25 571.5,-449.25 571.5,-449.25 577.5,-449.25 583.5,-455.25 583.5,-461.25 583.5,-461.25 583.5,-473.25 583.5,-473.25 583.5,-479.25 577.5,-485.25 571.5,-485.25"/>
<text text-anchor="start" x="441.5" y="-469.65" font-family="Helvetica,sans-Serif" font-weight="bold" font-size="12.00">Plan Builder</text>
<text text-anchor="start" x="439.5" y="-459.25" font-family="Helvetica,sans-Serif" font-size="10.00">draft + guardrails</text>
</g>
<!-- fund&#45;&gt;plan -->
<g id="edge7" class="edge">
<title>fund&#45;&gt;plan</title>
<path fill="none" stroke="#a04020" stroke-width="2.2" d="M486.27,-554.22C485.67,-545.55 484.98,-534.84 484.5,-525.25 484.01,-515.55 483.61,-504.92 483.29,-495.49"/>
<polygon fill="#a04020" stroke="#a04020" stroke-width="2.2" points="486.79,-495.35 482.97,-485.47 479.79,-495.57 486.79,-495.35"/>
<text text-anchor="middle" x="525.5" y="-517.25" font-family="Helvetica,sans-Serif" font-size="10.00">eligible_for_plan</text>
</g>
<!-- fund&#45;&gt;audit -->
<g id="edge25" class="edge">
<title>fund&#45;&gt;audit</title>
<path fill="none" stroke="#888888" stroke-width="1.3" stroke-dasharray="5,2" d="M525.97,-590.3C550.22,-603.26 579.66,-623.6 594.5,-651.25 632.17,-721.41 586.43,-752.25 602.5,-830.25 604.33,-839.13 607.39,-848.47 610.61,-856.9"/>
<ellipse fill="none" stroke="#888888" stroke-width="1.3" cx="612.1" cy="-860.63" rx="4" ry="4"/>
</g>
<!-- fund&#45;&gt;tools -->
<g id="edge18" class="edge">
<title>fund&#45;&gt;tools</title>
<path fill="none" stroke="#7a4fb0" stroke-width="1.3" d="M541.89,-590.29C561.75,-597.71 583.89,-607.44 602.5,-619.25 710.63,-687.91 810.59,-805.67 852.6,-858.6"/>
<polygon fill="#7a4fb0" stroke="#7a4fb0" stroke-width="1.3" points="858.84,-866.52 849.12,-861.44 855.63,-862.68 852.54,-858.75 852.65,-858.66 852.77,-858.57 855.87,-862.49 856.19,-855.87 858.84,-866.52 858.84,-866.52"/>
</g>
<!-- gate -->
<g id="node7" class="node">
<title>gate</title>
<path fill="#ffe2c2" stroke="#444444" stroke-width="1.4" d="M562.5,-380.25C562.5,-380.25 384.5,-380.25 384.5,-380.25 378.5,-380.25 372.5,-374.25 372.5,-368.25 372.5,-368.25 372.5,-356.25 372.5,-356.25 372.5,-350.25 378.5,-344.25 384.5,-344.25 384.5,-344.25 562.5,-344.25 562.5,-344.25 568.5,-344.25 574.5,-350.25 574.5,-356.25 574.5,-356.25 574.5,-368.25 574.5,-368.25 574.5,-374.25 568.5,-380.25 562.5,-380.25"/>
<text text-anchor="start" x="413" y="-364.65" font-family="Helvetica,sans-Serif" font-weight="bold" font-size="12.00">Risk + Supervisor</text>
<text text-anchor="start" x="419.5" y="-354.25" font-family="Helvetica,sans-Serif" font-size="10.00">approve · HITL · reject</text>
</g>
<!-- plan&#45;&gt;gate -->
<g id="edge8" class="edge">
<title>plan&#45;&gt;gate</title>
<path fill="none" stroke="#a04020" stroke-width="2.2" d="M481.01,-449.24C479.61,-433.21 477.49,-408.94 475.86,-390.26"/>
<polygon fill="#a04020" stroke="#a04020" stroke-width="2.2" points="479.35,-389.94 474.99,-380.28 472.37,-390.55 479.35,-389.94"/>
<text text-anchor="middle" x="496" y="-412.25" font-family="Helvetica,sans-Serif" font-size="10.00">drafted</text>
</g>
<!-- plan&#45;&gt;audit -->
<g id="edge26" class="edge">
<title>plan&#45;&gt;audit</title>
<path fill="none" stroke="#888888" stroke-width="1.3" stroke-dasharray="5,2" d="M527.06,-485.32C543.28,-492.77 561.14,-502.51 575.5,-514.25 592.91,-528.49 596.7,-534.01 606.5,-554.25 655.67,-655.8 639.57,-795.92 629.28,-856.22"/>
<ellipse fill="none" stroke="#888888" stroke-width="1.3" cx="628.57" cy="-860.24" rx="4" ry="4"/>
</g>
<!-- plan&#45;&gt;tools -->
<g id="edge19" class="edge">
<title>plan&#45;&gt;tools</title>
<path fill="none" stroke="#7a4fb0" stroke-width="1.3" d="M550.93,-485.28C571.23,-492.26 592.75,-501.72 610.5,-514.25 727.9,-597.09 730.82,-648.16 815.5,-764.25 835.77,-792.04 843.32,-797.91 857.5,-829.25 861.44,-837.96 864.64,-847.86 867.11,-856.92"/>
<polygon fill="#7a4fb0" stroke="#7a4fb0" stroke-width="1.3" points="869.6,-866.68 862.77,-858.1 868.22,-861.87 866.98,-857.02 867.13,-856.99 867.27,-856.95 868.51,-861.8 871.49,-855.88 869.6,-866.68 869.6,-866.68"/>
</g>
<!-- hitl -->
<g id="node8" class="node">
<title>hitl</title>
<path fill="#fde2e2" stroke="#444444" stroke-width="2" d="M296.92,-249.86C296.92,-249.86 275.83,-258.64 275.83,-258.64 270.29,-260.94 258.75,-263.25 252.75,-263.25 252.75,-263.25 190.25,-263.25 190.25,-263.25 184.25,-263.25 172.71,-260.94 167.17,-258.64 167.17,-258.64 146.08,-249.86 146.08,-249.86 140.54,-247.56 140.54,-242.94 146.08,-240.64 146.08,-240.64 167.17,-231.86 167.17,-231.86 172.71,-229.56 184.25,-227.25 190.25,-227.25 190.25,-227.25 252.75,-227.25 252.75,-227.25 258.75,-227.25 270.29,-229.56 275.83,-231.86 275.83,-231.86 296.92,-240.64 296.92,-240.64 302.46,-242.94 302.46,-247.56 296.92,-249.86"/>
<text text-anchor="start" x="173" y="-243.15" font-family="Helvetica,sans-Serif" font-weight="bold" font-size="12.00">HITL Operator</text>
</g>
<!-- gate&#45;&gt;hitl -->
<g id="edge9" class="edge">
<title>gate&#45;&gt;hitl</title>
<path fill="none" stroke="#a04020" stroke-width="2.2" d="M436.05,-344.16C391.44,-323.8 316.91,-289.79 268.48,-267.69"/>
<polygon fill="#a04020" stroke="#a04020" stroke-width="2.2" points="269.71,-264.4 259.16,-263.44 266.8,-270.77 269.71,-264.4"/>
<text text-anchor="middle" x="401.5" y="-307.25" font-family="Helvetica,sans-Serif" font-size="10.00">hitl_required</text>
</g>
<!-- exec -->
<g id="node9" class="node">
<title>exec</title>
<path fill="#dcecff" stroke="#444444" stroke-width="1.4" d="M551.36,-275.25C551.36,-275.25 432.41,-275.25 432.41,-275.25 426.41,-275.25 417.28,-270.13 414.14,-265.02 414.14,-265.02 389.91,-225.48 389.91,-225.48 386.78,-220.37 389.64,-215.25 395.64,-215.25 395.64,-215.25 514.59,-215.25 514.59,-215.25 520.59,-215.25 529.72,-220.37 532.86,-225.48 532.86,-225.48 557.09,-265.02 557.09,-265.02 560.22,-270.13 557.36,-275.25 551.36,-275.25"/>
<text text-anchor="start" x="440.5" y="-247.65" font-family="Helvetica,sans-Serif" font-weight="bold" font-size="12.00">Execution</text>
<text text-anchor="start" x="438.5" y="-237.25" font-family="Helvetica,sans-Serif" font-size="10.00">simulated fills</text>
</g>
<!-- gate&#45;&gt;exec -->
<g id="edge10" class="edge">
<title>gate&#45;&gt;exec</title>
<path fill="none" stroke="#a04020" stroke-width="2.2" d="M473.5,-343.78C473.5,-328.37 473.5,-305.35 473.5,-285.54"/>
<polygon fill="#a04020" stroke="#a04020" stroke-width="2.2" points="477,-285.53 473.5,-275.53 470,-285.53 477,-285.53"/>
<text text-anchor="middle" x="504" y="-307.25" font-family="Helvetica,sans-Serif" font-size="10.00">autonomous</text>
</g>
<!-- gate&#45;&gt;audit -->
<g id="edge27" class="edge">
<title>gate&#45;&gt;audit</title>
<path fill="none" stroke="#888888" stroke-width="1.3" stroke-dasharray="5,2" d="M510.55,-380.35C538.86,-395.07 577.05,-418.75 601.5,-449.25 632.83,-488.34 627.37,-506.49 642.5,-554.25 675.68,-658.97 679,-691.11 666.5,-800.25 664.95,-813.76 665.7,-817.69 660.5,-830.25 656.59,-839.7 650.97,-849.23 645.3,-857.66"/>
<ellipse fill="none" stroke="#888888" stroke-width="1.3" cx="642.84" cy="-861.18" rx="4" ry="4"/>
</g>
<!-- gate&#45;&gt;tools -->
<g id="edge20" class="edge">
<title>gate&#45;&gt;tools</title>
<path fill="none" stroke="#7a4fb0" stroke-width="1.3" d="M529.68,-380.33C550.45,-387.78 573.74,-397.52 593.5,-409.25 617.09,-423.25 621.99,-429.01 640.5,-449.25 755.24,-574.7 776.04,-615.03 857.5,-764.25 872.85,-792.37 890.18,-798.42 886.5,-830.25 885.49,-838.99 883.62,-848.35 881.6,-856.84"/>
<polygon fill="#7a4fb0" stroke="#7a4fb0" stroke-width="1.3" points="879.11,-866.68 877.2,-855.88 880.19,-861.79 881.42,-856.95 881.56,-856.98 881.71,-857.02 880.48,-861.87 885.92,-858.08 879.11,-866.68 879.11,-866.68"/>
</g>
<!-- hitl&#45;&gt;exec -->
<g id="edge11" class="edge">
<title>hitl&#45;&gt;exec</title>
<path fill="none" stroke="#b13838" stroke-width="2" d="M308.22,-245.25C335.24,-245.25 364.93,-245.25 391.61,-245.25"/>
<polygon fill="#b13838" stroke="#b13838" stroke-width="2" points="391.67,-248.75 401.67,-245.25 391.67,-241.75 391.67,-248.75"/>
<text text-anchor="middle" x="345.91" y="-251.25" font-family="Helvetica,sans-Serif" font-size="10.00">approve</text>
</g>
<!-- state -->
<g id="node10" class="node">
<title>state</title>
<path fill="#d6e6ff" stroke="#444444" stroke-width="1.4" d="M308,-142.6C308,-144.68 269.23,-146.38 221.5,-146.38 173.77,-146.38 135,-144.68 135,-142.6 135,-142.6 135,-108.65 135,-108.65 135,-106.57 173.77,-104.87 221.5,-104.87 269.23,-104.87 308,-106.57 308,-108.65 308,-108.65 308,-142.6 308,-142.6"/>
<path fill="none" stroke="#444444" stroke-width="1.4" d="M308,-142.6C308,-140.52 269.23,-138.83 221.5,-138.83 173.77,-138.83 135,-140.52 135,-142.6"/>
<text text-anchor="start" x="164" y="-128.03" font-family="Helvetica,sans-Serif" font-weight="bold" font-size="12.00">Holdings &amp; Plans</text>
<text text-anchor="start" x="205.5" y="-117.62" font-family="Helvetica,sans-Serif" font-size="10.00">SQLite</text>
</g>
<!-- hitl&#45;&gt;state -->
<g id="edge12" class="edge">
<title>hitl&#45;&gt;state</title>
<path fill="none" stroke="#b13838" stroke-width="1.3" stroke-dasharray="5,2" d="M221.5,-227.15C221.5,-208.75 221.5,-179.13 221.5,-156.8"/>
<polygon fill="#b13838" stroke="#b13838" stroke-width="1.3" points="225,-156.5 221.5,-146.5 218,-156.5 225,-156.5"/>
<text text-anchor="middle" x="235.5" y="-178.25" font-family="Helvetica,sans-Serif" font-size="10.00">reject</text>
</g>
<!-- exec&#45;&gt;state -->
<g id="edge13" class="edge">
<title>exec&#45;&gt;state</title>
<path fill="none" stroke="#666666" stroke-width="1.8" d="M391.14,-215.13C368.88,-206.52 345.01,-196.61 323.5,-186.25 302.38,-176.07 279.79,-163.1 261.24,-151.85"/>
<polygon fill="#666666" stroke="#666666" stroke-width="1.8" points="262.85,-148.73 252.49,-146.49 259.19,-154.7 262.85,-148.73"/>
</g>
<!-- state&#45;&gt;monitor -->
<g id="edge14" class="edge">
<title>state&#45;&gt;monitor</title>
<path fill="none" stroke="#666666" stroke-width="1.3" d="M197.42,-104.76C176.14,-87.19 145.05,-61.54 122.42,-42.86"/>
<polygon fill="#666666" stroke="#666666" stroke-width="1.3" points="124.44,-39.99 114.5,-36.33 119.99,-45.39 124.44,-39.99"/>
<text text-anchor="middle" x="197.5" y="-68" font-family="Helvetica,sans-Serif" font-size="10.00">open positions</text>
</g>
<!-- monitor&#45;&gt;fund -->
<g id="edge15" class="edge">
<title>monitor&#45;&gt;fund</title>
<path fill="none" stroke="#666666" stroke-width="1.3" stroke-dasharray="5,2" d="M156.2,-36.09C183.09,-44 214.66,-54.06 242.5,-65 280.61,-79.97 293.76,-79.12 325.5,-105 360.7,-133.7 348.39,-163.14 387.5,-186.25 462.56,-230.6 521.83,-151.69 581.5,-215.25 599.4,-234.31 604.78,-475.41 601.5,-485.25 591.83,-514.26 565.01,-535.28 539.81,-549.28"/>
<polygon fill="#666666" stroke="#666666" stroke-width="1.3" points="537.85,-546.35 530.64,-554.12 541.12,-552.55 537.85,-546.35"/>
<text text-anchor="middle" x="626" y="-307.25" font-family="Helvetica,sans-Serif" font-size="10.00">re&#45;evaluate</text>
</g>
<!-- monitor&#45;&gt;audit -->
<g id="edge28" class="edge">
<title>monitor&#45;&gt;audit</title>
<path fill="none" stroke="#888888" stroke-width="1.3" stroke-dasharray="5,2" d="M183.09,-36.05C216.06,-43.44 253.42,-53.15 286.5,-65 324.67,-78.67 335.03,-82.11 368.5,-105 412.44,-135.04 408.86,-162.5 456.5,-186.25 521.18,-218.49 558.77,-171.77 616.5,-215.25 803.56,-356.13 710.49,-501.24 701.5,-735.25 701.43,-737.09 701.74,-810.31 689.5,-830.25 682.82,-841.14 673.26,-850.93 663.49,-859.15"/>
<ellipse fill="none" stroke="#888888" stroke-width="1.3" cx="660.18" cy="-861.81" rx="4" ry="4"/>
</g>
<!-- monitor&#45;&gt;tools -->
<g id="edge21" class="edge">
<title>monitor&#45;&gt;tools</title>
<path fill="none" stroke="#7a4fb0" stroke-width="1.3" d="M187.02,-27.87C312.49,-44.34 535.79,-90.23 676.5,-215.25 873.26,-390.06 821.67,-512.52 898.5,-764.25 907.34,-793.22 925.14,-801.53 915.5,-830.25 912.1,-840.39 906.03,-850.15 899.54,-858.58"/>
<polygon fill="#7a4fb0" stroke="#7a4fb0" stroke-width="1.3" points="893,-866.54 895.87,-855.96 896.06,-862.58 899.23,-858.72 899.35,-858.81 899.47,-858.91 896.29,-862.77 902.83,-861.67 893,-866.54 893,-866.54"/>
</g>
<!-- rag -->
<g id="node13" class="node">
<title>rag</title>
<path fill="#c8ecd0" stroke="#3f8a4f" stroke-width="1.4" d="M1249.5,-909.25C1249.5,-912.01 1214.09,-914.25 1170.5,-914.25 1126.91,-914.25 1091.5,-912.01 1091.5,-909.25 1091.5,-909.25 1091.5,-864.25 1091.5,-864.25 1091.5,-861.49 1126.91,-859.25 1170.5,-859.25 1214.09,-859.25 1249.5,-861.49 1249.5,-864.25 1249.5,-864.25 1249.5,-909.25 1249.5,-909.25"/>
<path fill="none" stroke="#3f8a4f" stroke-width="1.4" d="M1249.5,-909.25C1249.5,-906.49 1214.09,-904.25 1170.5,-904.25 1126.91,-904.25 1091.5,-906.49 1091.5,-909.25"/>
<text text-anchor="start" x="1156.5" y="-894.15" font-family="Helvetica,sans-Serif" font-weight="bold" font-size="12.00">RAG</text>
<text text-anchor="start" x="1120.5" y="-883.75" font-family="Helvetica,sans-Serif" font-size="10.00">policies · past_plans</text>
<text text-anchor="start" x="1138.5" y="-873.75" font-family="Helvetica,sans-Serif" font-size="10.00">filings · news</text>
</g>
<!-- tools&#45;&gt;rag -->
<g id="edge23" class="edge">
<title>tools&#45;&gt;rag</title>
<path fill="none" stroke="#3f8a4f" stroke-width="1.3" d="M952.7,-886.75C992.22,-886.75 1040.19,-886.75 1081.04,-886.75"/>
<polygon fill="#3f8a4f" stroke="#3f8a4f" stroke-width="1.3" points="1091.26,-886.75 1081.26,-891.25 1086.26,-886.9 1081.26,-886.9 1081.26,-886.75 1081.26,-886.6 1086.26,-886.6 1081.26,-882.25 1091.26,-886.75 1091.26,-886.75"/>
<text text-anchor="middle" x="1022" y="-892.75" font-family="Helvetica,sans-Serif" font-size="10.00">search_*</text>
</g>
<!-- L1 -->
<g id="node15" class="node">
<title>L1</title>
<path fill="#ffe2c2" stroke="#444444" stroke-width="1.4" d="M1526.5,-904.75C1526.5,-904.75 1496.5,-904.75 1496.5,-904.75 1490.5,-904.75 1484.5,-898.75 1484.5,-892.75 1484.5,-892.75 1484.5,-880.75 1484.5,-880.75 1484.5,-874.75 1490.5,-868.75 1496.5,-868.75 1496.5,-868.75 1526.5,-868.75 1526.5,-868.75 1532.5,-868.75 1538.5,-874.75 1538.5,-880.75 1538.5,-880.75 1538.5,-892.75 1538.5,-892.75 1538.5,-898.75 1532.5,-904.75 1526.5,-904.75"/>
<text text-anchor="middle" x="1511.5" y="-883.65" font-family="Helvetica,sans-Serif" font-size="12.00">Agent</text>
</g>
<!-- L2 -->
<g id="node16" class="node">
<title>L2</title>
<polygon fill="#ffd9b3" stroke="#444444" stroke-width="1.4" points="1539,-800.25 1450,-800.25 1446,-796.25 1446,-764.25 1535,-764.25 1539,-768.25 1539,-800.25"/>
<polyline fill="none" stroke="#444444" stroke-width="1.4" points="1535,-796.25 1446,-796.25 "/>
<polyline fill="none" stroke="#444444" stroke-width="1.4" points="1535,-796.25 1535,-764.25 "/>
<polyline fill="none" stroke="#444444" stroke-width="1.4" points="1535,-796.25 1539,-800.25 "/>
<text text-anchor="middle" x="1492.5" y="-779.15" font-family="Helvetica,sans-Serif" font-size="12.00">Orchestrator</text>
</g>
<!-- L1&#45;&gt;L2 -->
<!-- L3 -->
<g id="node17" class="node">
<title>L3</title>
<polygon fill="#fde2e2" stroke="#444444" stroke-width="1.4" points="1535.3,-677.25 1513.9,-695.25 1471.1,-695.25 1449.7,-677.25 1471.1,-659.25 1513.9,-659.25 1535.3,-677.25"/>
<text text-anchor="middle" x="1492.5" y="-674.15" font-family="Helvetica,sans-Serif" font-size="12.00">Human</text>
</g>
<!-- L2&#45;&gt;L3 -->
<!-- L4 -->
<g id="node18" class="node">
<title>L4</title>
<path fill="#c8ecd0" stroke="#444444" stroke-width="1.4" d="M1448,-905.77C1448,-908.11 1425.37,-910 1397.5,-910 1369.63,-910 1347,-908.11 1347,-905.77 1347,-905.77 1347,-867.73 1347,-867.73 1347,-865.39 1369.63,-863.5 1397.5,-863.5 1425.37,-863.5 1448,-865.39 1448,-867.73 1448,-867.73 1448,-905.77 1448,-905.77"/>
<path fill="none" stroke="#444444" stroke-width="1.4" d="M1448,-905.77C1448,-903.44 1425.37,-901.55 1397.5,-901.55 1369.63,-901.55 1347,-903.44 1347,-905.77"/>
<text text-anchor="middle" x="1397.5" y="-890.15" font-family="Helvetica,sans-Serif" font-size="12.00">Knowledge</text>
<text text-anchor="middle" x="1397.5" y="-877.15" font-family="Helvetica,sans-Serif" font-size="12.00">(RAG corpora)</text>
</g>
<!-- L5 -->
<g id="node19" class="node">
<title>L5</title>
<polygon fill="#e1d3f5" stroke="#444444" stroke-width="1.4" points="1409.5,-800.25 1406.5,-804.25 1385.5,-804.25 1382.5,-800.25 1355.5,-800.25 1355.5,-764.25 1409.5,-764.25 1409.5,-800.25"/>
<text text-anchor="middle" x="1382.5" y="-779.15" font-family="Helvetica,sans-Serif" font-size="12.00">Tools</text>
</g>
<!-- L4&#45;&gt;L5 -->
<!-- L6 -->
<g id="node20" class="node">
<title>L6</title>
<polygon fill="#ffc9a3" stroke="#444444" stroke-width="1.4" points="1413.63,-669.79 1413.63,-684.71 1395.4,-695.25 1369.6,-695.25 1351.37,-684.71 1351.37,-669.79 1369.6,-659.25 1395.4,-659.25 1413.63,-669.79"/>
<text text-anchor="middle" x="1382.5" y="-674.15" font-family="Helvetica,sans-Serif" font-size="12.00">Audit</text>
</g>
<!-- L5&#45;&gt;L6 -->
</g>
</svg>
