<?xml version="1.0" encoding="UTF-8" standalone="no"?>
<!DOCTYPE svg PUBLIC "-//W3C//DTD SVG 1.1//EN"
 "http://www.w3.org/Graphics/SVG/1.1/DTD/svg11.dtd">
<!-- Generated by graphviz version 2.43.0 (0)
 -->
<!-- Title: horizon_capital_deploy Pages: 1 -->
<svg width="1787pt" height="517pt"
 viewBox="0.00 0.00 1786.60 517.00" xmlns="http://www.w3.org/2000/svg" xmlns:xlink="http://www.w3.org/1999/xlink">
<g id="graph0" class="graph" transform="scale(1 1) rotate(0) translate(28.8 488.2)">
<title>horizon_capital_deploy</title>
<polygon fill="white" stroke="transparent" points="-28.8,28.8 -28.8,-488.2 1757.8,-488.2 1757.8,28.8 -28.8,28.8"/>
<text text-anchor="start" x="663" y="-440.4" font-family="Helvetica,sans-Serif" font-weight="bold" font-size="20.00">Horizon Capital — Deployment View</text>
<text text-anchor="start" x="663" y="-426.8" font-family="Helvetica,sans-Serif" font-size="12.00" fill="#666666">Docker Compose (local) and AWS ECS Fargate (cloud) deployments</text>
<g id="clust4" class="cluster">
<title>cluster_obs</title>
<path fill="#fde7e7" stroke="#c83a3a" d="M800,-230.33C800,-230.33 1159,-230.33 1159,-230.33 1165,-230.33 1171,-236.33 1171,-242.33 1171,-242.33 1171,-399.4 1171,-399.4 1171,-405.4 1165,-411.4 1159,-411.4 1159,-411.4 800,-411.4 800,-411.4 794,-411.4 788,-405.4 788,-399.4 788,-399.4 788,-242.33 788,-242.33 788,-236.33 794,-230.33 800,-230.33"/>
<text text-anchor="start" x="934.5" y="-398.8" font-family="Helvetica,sans-Serif" font-weight="bold" font-size="12.00">Observability</text>
</g>
<g id="clust5" class="cluster">
<title>cluster_ext</title>
<path fill="#f0e6fa" stroke="#7a4fb0" d="M191,-8C191,-8 966,-8 966,-8 972,-8 978,-14 978,-20 978,-20 978,-85.33 978,-85.33 978,-91.33 972,-97.33 966,-97.33 966,-97.33 191,-97.33 191,-97.33 185,-97.33 179,-91.33 179,-85.33 179,-85.33 179,-20 179,-20 179,-14 185,-8 191,-8"/>
<text text-anchor="start" x="433.5" y="-84.73" font-family="Helvetica,sans-Serif" font-weight="bold" font-size="12.00">External Services (keyless where possible)</text>
</g>
<!-- internet -->
<g id="node1" class="node">
<title>internet</title>
<ellipse fill="#fff7d6" stroke="#333333" stroke-width="1.4" cx="1270" cy="-363.9" rx="78.48" ry="27.65"/>
<text text-anchor="start" x="1261" y="-371.6" font-family="Helvetica,sans-Serif" font-size="11.00">🌐</text>
<text text-anchor="start" x="1245" y="-360.6" font-family="Helvetica,sans-Serif" font-weight="bold" font-size="11.00">Internet</text>
<text text-anchor="start" x="1222.5" y="-351.2" font-family="Helvetica,sans-Serif" font-size="9.00">operators · reviewers</text>
</g>
<!-- alb -->
<g id="node2" class="node">
<title>alb</title>
<polygon fill="#ffd9b3" stroke="#333333" stroke-width="1.4" points="1414,-274.83 1346,-274.83 1342,-270.83 1342,-238.83 1410,-238.83 1414,-242.83 1414,-274.83"/>
<polyline fill="none" stroke="#333333" stroke-width="1.4" points="1410,-270.83 1342,-270.83 "/>
<polyline fill="none" stroke="#333333" stroke-width="1.4" points="1410,-270.83 1410,-238.83 "/>
<polyline fill="none" stroke="#333333" stroke-width="1.4" points="1410,-270.83 1414,-274.83 "/>
<text text-anchor="start" x="1350" y="-259.03" font-family="Helvetica,sans-Serif" font-weight="bold" font-size="11.00">AWS ALB</text>
<text text-anchor="start" x="1365.5" y="-249.63" font-family="Helvetica,sans-Serif" font-size="9.00">cloud</text>
</g>
<!-- internet&#45;&gt;alb -->
<g id="edge1" class="edge">
<title>internet&#45;&gt;alb</title>
<path fill="none" stroke="#a04020" stroke-width="2" d="M1288.78,-337.01C1297.89,-325.23 1309.36,-311.47 1321,-300.33 1328,-293.62 1336.08,-287.02 1343.91,-281.1"/>
<polygon fill="#a04020" stroke="#a04020" stroke-width="2" points="1346.26,-283.72 1352.24,-274.97 1342.11,-278.08 1346.26,-283.72"/>
<text text-anchor="middle" x="1335" y="-303.33" font-family="Helvetica,sans-Serif" font-size="10.00"> :443 </text>
</g>
<!-- nginx -->
<g id="node3" class="node">
<title>nginx</title>
<polygon fill="#ffd9b3" stroke="#333333" stroke-width="1.4" points="1312.5,-274.83 1231.5,-274.83 1227.5,-270.83 1227.5,-238.83 1308.5,-238.83 1312.5,-242.83 1312.5,-274.83"/>
<polyline fill="none" stroke="#333333" stroke-width="1.4" points="1308.5,-270.83 1227.5,-270.83 "/>
<polyline fill="none" stroke="#333333" stroke-width="1.4" points="1308.5,-270.83 1308.5,-238.83 "/>
<polyline fill="none" stroke="#333333" stroke-width="1.4" points="1308.5,-270.83 1312.5,-274.83 "/>
<text text-anchor="start" x="1238" y="-259.03" font-family="Helvetica,sans-Serif" font-weight="bold" font-size="11.00">nginx 1.27</text>
<text text-anchor="start" x="1235.5" y="-249.63" font-family="Helvetica,sans-Serif" font-size="9.00">local · :80/:443</text>
</g>
<!-- internet&#45;&gt;nginx -->
<g id="edge2" class="edge">
<title>internet&#45;&gt;nginx</title>
<path fill="none" stroke="#a04020" stroke-width="1.6" d="M1266.23,-336.12C1265.09,-325.05 1264.31,-312.08 1265,-300.33 1265.29,-295.39 1265.77,-290.16 1266.31,-285.1"/>
<polygon fill="#a04020" stroke="#a04020" stroke-width="1.6" points="1269.79,-285.5 1267.5,-275.15 1262.84,-284.67 1269.79,-285.5"/>
<text text-anchor="middle" x="1276" y="-303.33" font-family="Helvetica,sans-Serif" font-size="10.00"> :80 </text>
</g>
<!-- web1 -->
<g id="node4" class="node">
<title>web1</title>
<path fill="#d6e6ff" stroke="#333333" stroke-width="1.4" d="M1163.5,-177.33C1163.5,-177.33 1000.5,-177.33 1000.5,-177.33 994.5,-177.33 988.5,-171.33 988.5,-165.33 988.5,-165.33 988.5,-143.33 988.5,-143.33 988.5,-137.33 994.5,-131.33 1000.5,-131.33 1000.5,-131.33 1163.5,-131.33 1163.5,-131.33 1169.5,-131.33 1175.5,-137.33 1175.5,-143.33 1175.5,-143.33 1175.5,-165.33 1175.5,-165.33 1175.5,-171.33 1169.5,-177.33 1163.5,-177.33"/>
<text text-anchor="start" x="1038.5" y="-165.53" font-family="Helvetica,sans-Serif" font-weight="bold" font-size="11.00">web (FastAPI)</text>
<text text-anchor="start" x="1036.5" y="-156.13" font-family="Helvetica,sans-Serif" font-size="9.00">uvicorn · replicas≥2</text>
<text text-anchor="start" x="1018.5" y="-147.13" font-family="Helvetica,sans-Serif" font-size="9.00">request&#45;id · /healthz /readyz</text>
<text text-anchor="start" x="1041" y="-138.13" font-family="Helvetica,sans-Serif" font-size="9.00">/metrics · /version</text>
</g>
<!-- alb&#45;&gt;web1 -->
<g id="edge3" class="edge">
<title>alb&#45;&gt;web1</title>
<path fill="none" stroke="#3a7adf" stroke-width="1.6" d="M1346,-238.81C1339.78,-235.8 1333.25,-232.82 1327,-230.33 1278.12,-210.78 1222.08,-193.28 1175.95,-180.11"/>
<polygon fill="#3a7adf" stroke="#3a7adf" stroke-width="1.6" points="1176.83,-176.73 1166.26,-177.37 1174.93,-183.46 1176.83,-176.73"/>
</g>
<!-- web2 -->
<g id="node5" class="node">
<title>web2</title>
<path fill="#d6e6ff" stroke="#333333" stroke-width="1.4" d="M1379.5,-172.33C1379.5,-172.33 1216.5,-172.33 1216.5,-172.33 1210.5,-172.33 1204.5,-166.33 1204.5,-160.33 1204.5,-160.33 1204.5,-148.33 1204.5,-148.33 1204.5,-142.33 1210.5,-136.33 1216.5,-136.33 1216.5,-136.33 1379.5,-136.33 1379.5,-136.33 1385.5,-136.33 1391.5,-142.33 1391.5,-148.33 1391.5,-148.33 1391.5,-160.33 1391.5,-160.33 1391.5,-166.33 1385.5,-172.33 1379.5,-172.33"/>
<text text-anchor="start" x="1254.5" y="-156.53" font-family="Helvetica,sans-Serif" font-weight="bold" font-size="11.00">web (FastAPI)</text>
<text text-anchor="start" x="1252.5" y="-147.13" font-family="Helvetica,sans-Serif" font-size="9.00">uvicorn · replicas≥2</text>
</g>
<!-- alb&#45;&gt;web2 -->
<g id="edge4" class="edge">
<title>alb&#45;&gt;web2</title>
<path fill="none" stroke="#3a7adf" stroke-width="1.6" d="M1371.24,-238.48C1366.51,-227.51 1359.51,-213.37 1351,-202.33 1344.58,-194 1336.54,-185.99 1328.67,-179.01"/>
<polygon fill="#3a7adf" stroke="#3a7adf" stroke-width="1.6" points="1330.81,-176.24 1320.93,-172.41 1326.27,-181.57 1330.81,-176.24"/>
</g>
<!-- nginx&#45;&gt;web1 -->
<g id="edge5" class="edge">
<title>nginx&#45;&gt;web1</title>
<path fill="none" stroke="#3a7adf" stroke-width="1.6" d="M1238.11,-238.78C1209.19,-223.32 1166.08,-200.27 1132.48,-182.31"/>
<polygon fill="#3a7adf" stroke="#3a7adf" stroke-width="1.6" points="1133.74,-179.02 1123.28,-177.39 1130.44,-185.19 1133.74,-179.02"/>
</g>
<!-- nginx&#45;&gt;web2 -->
<g id="edge6" class="edge">
<title>nginx&#45;&gt;web2</title>
<path fill="none" stroke="#3a7adf" stroke-width="1.6" d="M1274.75,-238.78C1279.07,-223.26 1285.53,-200.09 1290.54,-182.1"/>
<polygon fill="#3a7adf" stroke="#3a7adf" stroke-width="1.6" points="1293.91,-183.03 1293.23,-172.46 1287.17,-181.15 1293.91,-183.03"/>
</g>
<!-- pg -->
<g id="node7" class="node">
<title>pg</title>
<path fill="#b9e6c2" stroke="#333333" stroke-width="1.4" d="M1354,-62.92C1354,-65.47 1318.59,-67.54 1275,-67.54 1231.41,-67.54 1196,-65.47 1196,-62.92 1196,-62.92 1196,-21.4 1196,-21.4 1196,-18.86 1231.41,-16.79 1275,-16.79 1318.59,-16.79 1354,-18.86 1354,-21.4 1354,-21.4 1354,-62.92 1354,-62.92"/>
<path fill="none" stroke="#333333" stroke-width="1.4" d="M1354,-62.92C1354,-60.38 1318.59,-58.31 1275,-58.31 1231.41,-58.31 1196,-60.38 1196,-62.92"/>
<text text-anchor="start" x="1238.5" y="-48.86" font-family="Helvetica,sans-Serif" font-weight="bold" font-size="11.00">postgres 16</text>
<text text-anchor="start" x="1214" y="-39.46" font-family="Helvetica,sans-Serif" font-size="9.00">firm state · journal · trades</text>
<text text-anchor="start" x="1207" y="-30.46" font-family="Helvetica,sans-Serif" font-size="9.00">(local: container · cloud: RDS)</text>
</g>
<!-- web1&#45;&gt;pg -->
<g id="edge7" class="edge">
<title>web1&#45;&gt;pg</title>
<path fill="none" stroke="#3a9d4a" stroke-width="1.3" d="M1121.99,-131.13C1140.32,-120.91 1162.3,-108.58 1182,-97.33 1195.84,-89.42 1210.79,-80.77 1224.56,-72.75"/>
<polygon fill="#3a9d4a" stroke="#3a9d4a" stroke-width="1.3" points="1226.55,-75.64 1233.42,-67.58 1223.02,-69.59 1226.55,-75.64"/>
</g>
<!-- redis -->
<g id="node8" class="node">
<title>redis</title>
<path fill="#b9e6c2" stroke="#333333" stroke-width="1.4" d="M1567.5,-62.92C1567.5,-65.47 1526.04,-67.54 1475,-67.54 1423.96,-67.54 1382.5,-65.47 1382.5,-62.92 1382.5,-62.92 1382.5,-21.4 1382.5,-21.4 1382.5,-18.86 1423.96,-16.79 1475,-16.79 1526.04,-16.79 1567.5,-18.86 1567.5,-21.4 1567.5,-21.4 1567.5,-62.92 1567.5,-62.92"/>
<path fill="none" stroke="#333333" stroke-width="1.4" d="M1567.5,-62.92C1567.5,-60.38 1526.04,-58.31 1475,-58.31 1423.96,-58.31 1382.5,-60.38 1382.5,-62.92"/>
<text text-anchor="start" x="1453.5" y="-48.86" font-family="Helvetica,sans-Serif" font-weight="bold" font-size="11.00">redis 7</text>
<text text-anchor="start" x="1413" y="-39.46" font-family="Helvetica,sans-Serif" font-size="9.00">rate limit · cache · pub/sub</text>
<text text-anchor="start" x="1390.5" y="-30.46" font-family="Helvetica,sans-Serif" font-size="9.00">(local: container · cloud: ElastiCache)</text>
</g>
<!-- web1&#45;&gt;redis -->
<g id="edge10" class="edge">
<title>web1&#45;&gt;redis</title>
<path fill="none" stroke="#3a9d4a" stroke-width="1.3" stroke-dasharray="5,2" d="M1175.65,-134.17C1180.5,-133.2 1185.31,-132.25 1190,-131.33 1269.45,-115.69 1292.39,-123.57 1369,-97.33 1387.81,-90.88 1407.44,-81.64 1424.63,-72.6"/>
<polygon fill="#3a9d4a" stroke="#3a9d4a" stroke-width="1.3" points="1426.76,-75.43 1433.91,-67.62 1423.45,-69.27 1426.76,-75.43"/>
</g>
<!-- vec -->
<g id="node9" class="node">
<title>vec</title>
<path fill="#b9e6c2" stroke="#333333" stroke-width="1.4" d="M1167,-62.92C1167,-65.47 1129.35,-67.54 1083,-67.54 1036.65,-67.54 999,-65.47 999,-62.92 999,-62.92 999,-21.4 999,-21.4 999,-18.86 1036.65,-16.79 1083,-16.79 1129.35,-16.79 1167,-18.86 1167,-21.4 1167,-21.4 1167,-62.92 1167,-62.92"/>
<path fill="none" stroke="#333333" stroke-width="1.4" d="M1167,-62.92C1167,-60.38 1129.35,-58.31 1083,-58.31 1036.65,-58.31 999,-60.38 999,-62.92"/>
<text text-anchor="start" x="1020.5" y="-48.86" font-family="Helvetica,sans-Serif" font-weight="bold" font-size="11.00">sqlite (RAG vectors)</text>
<text text-anchor="start" x="1007" y="-39.46" font-family="Helvetica,sans-Serif" font-size="9.00">policy · news · filings · past_plans</text>
<text text-anchor="start" x="1035.5" y="-30.46" font-family="Helvetica,sans-Serif" font-size="9.00">(roadmap: pgvector)</text>
</g>
<!-- web1&#45;&gt;vec -->
<g id="edge13" class="edge">
<title>web1&#45;&gt;vec</title>
<path fill="none" stroke="#3a9d4a" stroke-width="1.3" stroke-dasharray="1,5" d="M1082.2,-131.3C1082.34,-116.11 1082.52,-95.61 1082.68,-78.21"/>
<polygon fill="#3a9d4a" stroke="#3a9d4a" stroke-width="1.3" points="1086.18,-77.87 1082.78,-67.84 1079.19,-77.81 1086.18,-77.87"/>
</g>
<!-- logs -->
<g id="node13" class="node">
<title>logs</title>
<polygon fill="#ffe2c2" stroke="#333333" stroke-width="1.4" points="986,-382.4 796,-382.4 796,-345.4 992,-345.4 992,-376.4 986,-382.4"/>
<polyline fill="none" stroke="#333333" stroke-width="1.4" points="986,-382.4 986,-376.4 "/>
<polyline fill="none" stroke="#333333" stroke-width="1.4" points="992,-376.4 986,-376.4 "/>
<text text-anchor="start" x="857" y="-370.6" font-family="Helvetica,sans-Serif" font-weight="bold" font-size="11.00">JSON stdout</text>
<text text-anchor="start" x="845.5" y="-361.2" font-family="Helvetica,sans-Serif" font-size="9.00">request&#45;id correlation</text>
<text text-anchor="start" x="804" y="-352.2" font-family="Helvetica,sans-Serif" font-size="9.00">(local: docker logs · cloud: CloudWatch)</text>
</g>
<!-- web1&#45;&gt;logs -->
<g id="edge26" class="edge">
<title>web1&#45;&gt;logs</title>
<path fill="none" stroke="#c83a3a" stroke-width="1.3" stroke-dasharray="1,5" d="M1061.82,-177.61C1026.58,-216.52 954.05,-296.6 916.95,-337.56"/>
<polygon fill="#c83a3a" stroke="#c83a3a" stroke-width="1.3" points="910.03,-345.21 913.41,-334.77 913.27,-341.4 916.63,-337.69 916.74,-337.79 916.85,-337.89 913.5,-341.6 920.08,-340.81 910.03,-345.21 910.03,-345.21"/>
</g>
<!-- oai -->
<g id="node18" class="node">
<title>oai</title>
<ellipse fill="#e1d3f5" stroke="#333333" stroke-width="1.4" cx="865" cy="-42.16" rx="105.22" ry="26.33"/>
<text text-anchor="start" x="843" y="-48.86" font-family="Helvetica,sans-Serif" font-weight="bold" font-size="11.00">OpenAI</text>
<text text-anchor="start" x="832.5" y="-39.46" font-family="Helvetica,sans-Serif" font-size="9.00">LLM (optional)</text>
<text text-anchor="start" x="798.5" y="-30.46" font-family="Helvetica,sans-Serif" font-size="9.00">USE_MOCK_LLM=1 to bypass</text>
</g>
<!-- web1&#45;&gt;oai -->
<g id="edge16" class="edge">
<title>web1&#45;&gt;oai</title>
<path fill="none" stroke="#7a4fb0" stroke-width="1.3" stroke-dasharray="5,2" d="M1038.61,-131.3C1004.17,-113.82 955.86,-89.29 918.93,-70.54"/>
<polygon fill="#7a4fb0" stroke="#7a4fb0" stroke-width="1.3" points="920.31,-67.32 909.81,-65.91 917.14,-73.56 920.31,-67.32"/>
</g>
<!-- web2&#45;&gt;pg -->
<g id="edge8" class="edge">
<title>web2&#45;&gt;pg</title>
<path fill="none" stroke="#3a9d4a" stroke-width="1.3" d="M1294.41,-136.11C1291.15,-120.52 1286.26,-97.08 1282.2,-77.64"/>
<polygon fill="#3a9d4a" stroke="#3a9d4a" stroke-width="1.3" points="1285.57,-76.69 1280.1,-67.61 1278.72,-78.12 1285.57,-76.69"/>
</g>
<!-- web2&#45;&gt;redis -->
<g id="edge11" class="edge">
<title>web2&#45;&gt;redis</title>
<path fill="none" stroke="#3a9d4a" stroke-width="1.3" stroke-dasharray="5,2" d="M1325.66,-136.11C1352.67,-119.3 1394.35,-93.36 1426.82,-73.15"/>
<polygon fill="#3a9d4a" stroke="#3a9d4a" stroke-width="1.3" points="1429.08,-75.87 1435.72,-67.61 1425.38,-69.92 1429.08,-75.87"/>
</g>
<!-- web2&#45;&gt;logs -->
<g id="edge27" class="edge">
<title>web2&#45;&gt;logs</title>
<path fill="none" stroke="#c83a3a" stroke-width="1.3" stroke-dasharray="1,5" d="M1278.2,-172.36C1260.83,-187.41 1234.99,-210.04 1213,-230.33 1174.88,-265.49 1174.89,-287.16 1129,-311.33 1080.03,-337.11 1061.06,-324.43 1007,-336.33 997.33,-338.45 987.21,-340.74 977.17,-343.05"/>
<polygon fill="#c83a3a" stroke="#c83a3a" stroke-width="1.3" points="967.18,-345.37 975.9,-338.73 972.01,-344.09 976.88,-342.97 976.92,-343.11 976.95,-343.26 972.08,-344.39 977.93,-347.5 967.18,-345.37 967.18,-345.37"/>
</g>
<!-- worker -->
<g id="node6" class="node">
<title>worker</title>
<path fill="#d6e6ff" stroke="#333333" stroke-width="1.4" d="M946.5,-177.33C946.5,-177.33 783.5,-177.33 783.5,-177.33 777.5,-177.33 771.5,-171.33 771.5,-165.33 771.5,-165.33 771.5,-143.33 771.5,-143.33 771.5,-137.33 777.5,-131.33 783.5,-131.33 783.5,-131.33 946.5,-131.33 946.5,-131.33 952.5,-131.33 958.5,-137.33 958.5,-143.33 958.5,-143.33 958.5,-165.33 958.5,-165.33 958.5,-171.33 952.5,-177.33 946.5,-177.33"/>
<text text-anchor="start" x="843.5" y="-165.53" font-family="Helvetica,sans-Serif" font-weight="bold" font-size="11.00">worker</text>
<text text-anchor="start" x="818" y="-156.13" font-family="Helvetica,sans-Serif" font-size="9.00">scheduler_worker.py</text>
<text text-anchor="start" x="795" y="-147.13" font-family="Helvetica,sans-Serif" font-size="9.00">plan supervision · balance loop</text>
<text text-anchor="start" x="797" y="-138.13" font-family="Helvetica,sans-Serif" font-size="9.00">(leader election → replicas&gt;1)</text>
</g>
<!-- worker&#45;&gt;pg -->
<g id="edge9" class="edge">
<title>worker&#45;&gt;pg</title>
<path fill="none" stroke="#3a9d4a" stroke-width="1.3" d="M910.12,-131.22C932.4,-121.41 960.02,-110.84 986,-105.33 1028.64,-96.27 1140.16,-109.54 1182,-97.33 1199.84,-92.12 1217.86,-82.78 1233.22,-73.3"/>
<polygon fill="#3a9d4a" stroke="#3a9d4a" stroke-width="1.3" points="1235.39,-76.07 1241.94,-67.74 1231.63,-70.17 1235.39,-76.07"/>
</g>
<!-- worker&#45;&gt;redis -->
<g id="edge12" class="edge">
<title>worker&#45;&gt;redis</title>
<path fill="none" stroke="#3a9d4a" stroke-width="1.3" stroke-dasharray="5,2" d="M958.53,-133.74C963.75,-132.86 968.94,-132.05 974,-131.33 1061.21,-118.81 1284.31,-121.6 1369,-97.33 1388.96,-91.6 1409.59,-82.03 1427.27,-72.51"/>
<polygon fill="#3a9d4a" stroke="#3a9d4a" stroke-width="1.3" points="1429.18,-75.45 1436.24,-67.55 1425.79,-69.33 1429.18,-75.45"/>
</g>
<!-- worker&#45;&gt;vec -->
<g id="edge14" class="edge">
<title>worker&#45;&gt;vec</title>
<path fill="none" stroke="#3a9d4a" stroke-width="1.3" stroke-dasharray="1,5" d="M896.02,-131.3C910.34,-122.05 927.93,-111.93 945,-105.33 961.91,-98.79 967.98,-103.56 985,-97.33 1002.39,-90.95 1020.42,-81.82 1036.19,-72.86"/>
<polygon fill="#3a9d4a" stroke="#3a9d4a" stroke-width="1.3" points="1038.31,-75.68 1045.2,-67.63 1034.79,-69.63 1038.31,-75.68"/>
</g>
<!-- ckpt -->
<g id="node10" class="node">
<title>ckpt</title>
<path fill="#b9e6c2" stroke="#333333" stroke-width="1.4" d="M158,-57.71C158,-59.62 122.59,-61.17 79,-61.17 35.41,-61.17 0,-59.62 0,-57.71 0,-57.71 0,-26.61 0,-26.61 0,-24.71 35.41,-23.16 79,-23.16 122.59,-23.16 158,-24.71 158,-26.61 158,-26.61 158,-57.71 158,-57.71"/>
<path fill="none" stroke="#333333" stroke-width="1.4" d="M158,-57.71C158,-55.8 122.59,-54.26 79,-54.26 35.41,-54.26 0,-55.8 0,-57.71"/>
<text text-anchor="start" x="21.5" y="-44.36" font-family="Helvetica,sans-Serif" font-weight="bold" font-size="11.00">sqlite (LangGraph)</text>
<text text-anchor="start" x="17" y="-34.96" font-family="Helvetica,sans-Serif" font-size="9.00">checkpoints survive restart</text>
</g>
<!-- worker&#45;&gt;ckpt -->
<g id="edge15" class="edge">
<title>worker&#45;&gt;ckpt</title>
<path fill="none" stroke="#3a9d4a" stroke-width="1.3" stroke-dasharray="1,5" d="M771.42,-150.89C608.85,-145.82 281.2,-131.58 172,-97.33 150.59,-90.61 128.81,-78.28 111.71,-67.08"/>
<polygon fill="#3a9d4a" stroke="#3a9d4a" stroke-width="1.3" points="113.47,-64.04 103.22,-61.36 109.56,-69.85 113.47,-64.04"/>
</g>
<!-- worker&#45;&gt;logs -->
<g id="edge28" class="edge">
<title>worker&#45;&gt;logs</title>
<path fill="none" stroke="#c83a3a" stroke-width="1.3" stroke-dasharray="1,5" d="M868.11,-177.61C873.45,-215.79 884.32,-293.61 890.13,-335.21"/>
<polygon fill="#c83a3a" stroke="#c83a3a" stroke-width="1.3" points="891.53,-345.21 885.69,-335.92 890.69,-340.27 890,-335.32 890.14,-335.3 890.29,-335.28 890.98,-340.23 894.6,-334.68 891.53,-345.21 891.53,-345.21"/>
</g>
<!-- yf -->
<g id="node14" class="node">
<title>yf</title>
<ellipse fill="#e1d3f5" stroke="#333333" stroke-width="1.4" cx="387" cy="-42.16" rx="48.58" ry="19.6"/>
<text text-anchor="start" x="360.5" y="-44.36" font-family="Helvetica,sans-Serif" font-weight="bold" font-size="11.00">yfinance</text>
<text text-anchor="start" x="369" y="-34.96" font-family="Helvetica,sans-Serif" font-size="9.00">equities</text>
</g>
<!-- worker&#45;&gt;yf -->
<g id="edge17" class="edge">
<title>worker&#45;&gt;yf</title>
<path fill="none" stroke="#7a4fb0" stroke-width="1.3" stroke-dasharray="5,2" d="M771.14,-146.76C667.09,-138.41 506.59,-122.04 451,-97.33 435.76,-90.55 421.35,-78.99 410.07,-68.29"/>
<polygon fill="#7a4fb0" stroke="#7a4fb0" stroke-width="1.3" points="412.36,-65.63 402.79,-61.08 407.43,-70.61 412.36,-65.63"/>
</g>
<!-- edgar -->
<g id="node15" class="node">
<title>edgar</title>
<ellipse fill="#e1d3f5" stroke="#333333" stroke-width="1.4" cx="526" cy="-42.16" rx="60.62" ry="19.6"/>
<text text-anchor="start" x="491" y="-44.36" font-family="Helvetica,sans-Serif" font-weight="bold" font-size="11.00">SEC EDGAR</text>
<text text-anchor="start" x="512" y="-34.96" font-family="Helvetica,sans-Serif" font-size="9.00">filings</text>
</g>
<!-- worker&#45;&gt;edgar -->
<g id="edge18" class="edge">
<title>worker&#45;&gt;edgar</title>
<path fill="none" stroke="#7a4fb0" stroke-width="1.3" stroke-dasharray="5,2" d="M771.35,-143.13C719.51,-135.13 654.86,-121.2 601,-97.33 584.1,-89.83 567.23,-78.13 553.79,-67.51"/>
<polygon fill="#7a4fb0" stroke="#7a4fb0" stroke-width="1.3" points="555.86,-64.68 545.89,-61.09 551.44,-70.12 555.86,-64.68"/>
</g>
<!-- cg -->
<g id="node16" class="node">
<title>cg</title>
<ellipse fill="#e1d3f5" stroke="#333333" stroke-width="1.4" cx="673" cy="-42.16" rx="57.05" ry="19.6"/>
<text text-anchor="start" x="640.5" y="-44.36" font-family="Helvetica,sans-Serif" font-weight="bold" font-size="11.00">CoinGecko</text>
<text text-anchor="start" x="658" y="-34.96" font-family="Helvetica,sans-Serif" font-size="9.00">crypto</text>
</g>
<!-- worker&#45;&gt;cg -->
<g id="edge19" class="edge">
<title>worker&#45;&gt;cg</title>
<path fill="none" stroke="#7a4fb0" stroke-width="1.3" stroke-dasharray="5,2" d="M811.5,-131.23C790.28,-121.74 765.99,-109.93 745,-97.33 730.15,-88.41 714.67,-77.07 701.89,-67.07"/>
<polygon fill="#7a4fb0" stroke="#7a4fb0" stroke-width="1.3" points="703.92,-64.22 693.92,-60.74 699.57,-69.7 703.92,-64.22"/>
</g>
<!-- fk -->
<g id="node17" class="node">
<title>fk</title>
<ellipse fill="#e1d3f5" stroke="#333333" stroke-width="1.4" cx="248" cy="-42.16" rx="60.62" ry="19.6"/>
<text text-anchor="start" x="213" y="-44.36" font-family="Helvetica,sans-Serif" font-weight="bold" font-size="11.00">Frankfurter</text>
<text text-anchor="start" x="229.5" y="-34.96" font-family="Helvetica,sans-Serif" font-size="9.00">FX/rates</text>
</g>
<!-- worker&#45;&gt;fk -->
<g id="edge20" class="edge">
<title>worker&#45;&gt;fk</title>
<path fill="none" stroke="#7a4fb0" stroke-width="1.3" stroke-dasharray="5,2" d="M771.29,-149.39C638.67,-142.84 403.5,-127.36 324,-97.33 306.18,-90.59 288.69,-78.62 274.99,-67.64"/>
<polygon fill="#7a4fb0" stroke="#7a4fb0" stroke-width="1.3" points="276.91,-64.68 266.99,-60.98 272.44,-70.07 276.91,-64.68"/>
</g>
<!-- worker&#45;&gt;oai -->
<g id="edge21" class="edge">
<title>worker&#45;&gt;oai</title>
<path fill="none" stroke="#7a4fb0" stroke-width="1.3" stroke-dasharray="5,2" d="M865,-131.3C865,-116.32 865,-96.17 865,-78.92"/>
<polygon fill="#7a4fb0" stroke="#7a4fb0" stroke-width="1.3" points="868.5,-78.63 865,-68.63 861.5,-78.63 868.5,-78.63"/>
</g>
<!-- prom -->
<g id="node11" class="node">
<title>prom</title>
<path fill="#fbd0d0" stroke="#333333" stroke-width="1.4" d="M1118.5,-275.33C1118.5,-275.33 1051.5,-275.33 1051.5,-275.33 1045.5,-275.33 1039.5,-269.33 1039.5,-263.33 1039.5,-263.33 1039.5,-250.33 1039.5,-250.33 1039.5,-244.33 1045.5,-238.33 1051.5,-238.33 1051.5,-238.33 1118.5,-238.33 1118.5,-238.33 1124.5,-238.33 1130.5,-244.33 1130.5,-250.33 1130.5,-250.33 1130.5,-263.33 1130.5,-263.33 1130.5,-269.33 1124.5,-275.33 1118.5,-275.33"/>
<text text-anchor="start" x="1047.5" y="-263.53" font-family="Helvetica,sans-Serif" font-weight="bold" font-size="11.00">Prometheus</text>
<text text-anchor="start" x="1050" y="-254.13" font-family="Helvetica,sans-Serif" font-size="9.00">scrape /metrics</text>
<text text-anchor="start" x="1052.5" y="-245.13" font-family="Helvetica,sans-Serif" font-size="9.00">baseline alerts</text>
</g>
<!-- prom&#45;&gt;web1 -->
<g id="edge22" class="edge">
<title>prom&#45;&gt;web1</title>
<path fill="none" stroke="#c83a3a" stroke-width="1.3" stroke-dasharray="5,2" d="M1081.24,-227.88C1080.72,-223.04 1080.28,-218.04 1080,-213.33 1079.3,-201.46 1079.67,-188.21 1080.28,-177.37"/>
<polygon fill="#c83a3a" stroke="#c83a3a" stroke-width="1.3" points="1077.8,-228.56 1082.44,-238.08 1084.75,-227.74 1077.8,-228.56"/>
<text text-anchor="middle" x="1103" y="-205.33" font-family="Helvetica,sans-Serif" font-size="10.00"> /metrics </text>
</g>
<!-- prom&#45;&gt;web2 -->
<g id="edge23" class="edge">
<title>prom&#45;&gt;web2</title>
<path fill="none" stroke="#c83a3a" stroke-width="1.3" stroke-dasharray="5,2" d="M1117.13,-232.36C1131.85,-222.27 1149.82,-210.86 1167,-202.33 1190.58,-190.6 1217.83,-180.34 1241.35,-172.42"/>
<polygon fill="#c83a3a" stroke="#c83a3a" stroke-width="1.3" points="1115.07,-229.53 1108.87,-238.11 1119.07,-235.27 1115.07,-229.53"/>
</g>
<!-- prom&#45;&gt;worker -->
<g id="edge24" class="edge">
<title>prom&#45;&gt;worker</title>
<path fill="none" stroke="#c83a3a" stroke-width="1.3" stroke-dasharray="5,2" d="M1037.19,-233.99C1000.5,-217.22 950.06,-194.18 913.25,-177.37"/>
<polygon fill="#c83a3a" stroke="#c83a3a" stroke-width="1.3" points="1036.13,-237.35 1046.68,-238.32 1039.04,-230.98 1036.13,-237.35"/>
</g>
<!-- graf -->
<g id="node12" class="node">
<title>graf</title>
<path fill="#fbd0d0" stroke="#333333" stroke-width="1.4" d="M1151,-382.4C1151,-382.4 1033,-382.4 1033,-382.4 1027,-382.4 1021,-376.4 1021,-370.4 1021,-370.4 1021,-357.4 1021,-357.4 1021,-351.4 1027,-345.4 1033,-345.4 1033,-345.4 1151,-345.4 1151,-345.4 1157,-345.4 1163,-351.4 1163,-357.4 1163,-357.4 1163,-370.4 1163,-370.4 1163,-376.4 1157,-382.4 1151,-382.4"/>
<text text-anchor="start" x="1067.5" y="-370.6" font-family="Helvetica,sans-Serif" font-weight="bold" font-size="11.00">Grafana</text>
<text text-anchor="start" x="1029" y="-361.2" font-family="Helvetica,sans-Serif" font-size="9.00">pre&#45;provisioned dashboards</text>
<text text-anchor="start" x="1058.5" y="-352.2" font-family="Helvetica,sans-Serif" font-size="9.00">admin / admin</text>
</g>
<!-- graf&#45;&gt;prom -->
<g id="edge25" class="edge">
<title>graf&#45;&gt;prom</title>
<path fill="none" stroke="#c83a3a" stroke-width="1.3" stroke-dasharray="5,2" d="M1090.81,-345.08C1089.72,-328.75 1088.1,-304.33 1086.84,-285.47"/>
<polygon fill="#c83a3a" stroke="#c83a3a" stroke-width="1.3" points="1086.17,-275.39 1091.32,-285.07 1086.65,-280.37 1086.98,-285.36 1086.83,-285.37 1086.69,-285.38 1086.35,-280.39 1082.34,-285.66 1086.17,-275.39 1086.17,-275.39"/>
<text text-anchor="middle" x="1105" y="-303.33" font-family="Helvetica,sans-Serif" font-size="10.00"> query </text>
</g>
<!-- gh -->
<g id="node19" class="node">
<title>gh</title>
<path fill="#fff7d6" stroke="#333333" stroke-width="1.4" d="M1508.5,-382.4C1508.5,-382.4 1389.5,-382.4 1389.5,-382.4 1383.5,-382.4 1377.5,-376.4 1377.5,-370.4 1377.5,-370.4 1377.5,-357.4 1377.5,-357.4 1377.5,-351.4 1383.5,-345.4 1389.5,-345.4 1389.5,-345.4 1508.5,-345.4 1508.5,-345.4 1514.5,-345.4 1520.5,-351.4 1520.5,-357.4 1520.5,-357.4 1520.5,-370.4 1520.5,-370.4 1520.5,-376.4 1514.5,-382.4 1508.5,-382.4"/>
<text text-anchor="start" x="1403" y="-370.6" font-family="Helvetica,sans-Serif" font-weight="bold" font-size="11.00">GitHub Actions</text>
<text text-anchor="start" x="1409.5" y="-361.2" font-family="Helvetica,sans-Serif" font-size="9.00">lint · pytest · eval</text>
<text text-anchor="start" x="1385.5" y="-352.2" font-family="Helvetica,sans-Serif" font-size="9.00">build · push · deploy (OIDC)</text>
</g>
<!-- gh&#45;&gt;alb -->
<g id="edge30" class="edge">
<title>gh&#45;&gt;alb</title>
<path fill="none" stroke="#e8c84a" stroke-width="1.6" d="M1441.5,-345.19C1435.66,-332.25 1426.89,-314.55 1417,-300.33 1412.85,-294.36 1407.92,-288.36 1402.99,-282.83"/>
<polygon fill="#e8c84a" stroke="#e8c84a" stroke-width="1.6" points="1405.2,-280.07 1395.84,-275.11 1400.07,-284.83 1405.2,-280.07"/>
<text text-anchor="middle" x="1443" y="-303.33" font-family="Helvetica,sans-Serif" font-size="10.00"> deploy </text>
</g>
<!-- gh&#45;&gt;nginx -->
<g id="edge31" class="edge">
<title>gh&#45;&gt;nginx</title>
<path fill="none" stroke="#e8c84a" stroke-width="1.6" d="M1423.07,-345.22C1403.77,-332.3 1376.62,-314.6 1352,-300.33 1339.72,-293.21 1326.13,-285.93 1313.6,-279.45"/>
<polygon fill="#e8c84a" stroke="#e8c84a" stroke-width="1.6" points="1315.2,-276.34 1304.7,-274.89 1312.01,-282.57 1315.2,-276.34"/>
<text text-anchor="middle" x="1383.5" y="-303.33" font-family="Helvetica,sans-Serif" font-size="10.00"> build </text>
</g>
<!-- tf -->
<g id="node20" class="node">
<title>tf</title>
<path fill="#fff7d6" stroke="#333333" stroke-width="1.4" d="M1717,-382.4C1717,-382.4 1619,-382.4 1619,-382.4 1613,-382.4 1607,-376.4 1607,-370.4 1607,-370.4 1607,-357.4 1607,-357.4 1607,-351.4 1613,-345.4 1619,-345.4 1619,-345.4 1717,-345.4 1717,-345.4 1723,-345.4 1729,-351.4 1729,-357.4 1729,-357.4 1729,-370.4 1729,-370.4 1729,-376.4 1723,-382.4 1717,-382.4"/>
<text text-anchor="start" x="1637.5" y="-370.6" font-family="Helvetica,sans-Serif" font-weight="bold" font-size="11.00">Terraform</text>
<text text-anchor="start" x="1615" y="-361.2" font-family="Helvetica,sans-Serif" font-size="9.00">VPC · RDS · ElastiCache</text>
<text text-anchor="start" x="1619.5" y="-352.2" font-family="Helvetica,sans-Serif" font-size="9.00">ECR · ECS · ALB · IAM</text>
</g>
<!-- gh&#45;&gt;tf -->
<g id="edge29" class="edge">
<title>gh&#45;&gt;tf</title>
<path fill="none" stroke="#e8c84a" stroke-width="1.6" d="M1520.71,-363.9C1545.05,-363.9 1572.23,-363.9 1596.55,-363.9"/>
<polygon fill="#e8c84a" stroke="#e8c84a" stroke-width="1.6" points="1596.78,-367.4 1606.78,-363.9 1596.78,-360.4 1596.78,-367.4"/>
<text text-anchor="middle" x="1563.75" y="-369.9" font-family="Helvetica,sans-Serif" font-size="10.00"> plan/apply </text>
</g>
<!-- tf&#45;&gt;alb -->
<g id="edge32" class="edge">
<title>tf&#45;&gt;alb</title>
<path fill="none" stroke="#d97a2c" stroke-width="1.6" d="M1619.46,-345.32C1564.97,-325.57 1477.21,-293.77 1423.84,-274.44"/>
<polygon fill="#d97a2c" stroke="#d97a2c" stroke-width="1.6" points="1424.89,-271.09 1414.29,-270.98 1422.5,-277.67 1424.89,-271.09"/>
<text text-anchor="middle" x="1551.5" y="-303.33" font-family="Helvetica,sans-Serif" font-size="10.00"> provisions </text>
</g>
<!-- k8s -->
<g id="node21" class="node">
<title>k8s</title>
<path fill="#fff7d6" stroke="#333333" stroke-width="1.4" d="M755.5,-382.4C755.5,-382.4 620.5,-382.4 620.5,-382.4 614.5,-382.4 608.5,-376.4 608.5,-370.4 608.5,-370.4 608.5,-357.4 608.5,-357.4 608.5,-351.4 614.5,-345.4 620.5,-345.4 620.5,-345.4 755.5,-345.4 755.5,-345.4 761.5,-345.4 767.5,-351.4 767.5,-357.4 767.5,-357.4 767.5,-370.4 767.5,-370.4 767.5,-376.4 761.5,-382.4 755.5,-382.4"/>
<text text-anchor="start" x="655.5" y="-370.6" font-family="Helvetica,sans-Serif" font-weight="bold" font-size="11.00">Kustomize</text>
<text text-anchor="start" x="652" y="-361.2" font-family="Helvetica,sans-Serif" font-size="9.00">base + overlays</text>
<text text-anchor="start" x="616.5" y="-352.2" font-family="Helvetica,sans-Serif" font-size="9.00">HPA · PDB · NetworkPolicy · PSA</text>
</g>
<!-- k8s&#45;&gt;web1 -->
<g id="edge33" class="edge">
<title>k8s&#45;&gt;web1</title>
<path fill="none" stroke="#d97a2c" stroke-width="1.6" stroke-dasharray="5,2" d="M687.66,-345.39C688.11,-316.91 693.4,-260.67 726,-230.33 728.37,-228.12 874.17,-197.89 978.42,-176.49"/>
<polygon fill="#d97a2c" stroke="#d97a2c" stroke-width="1.6" points="979.28,-179.89 988.37,-174.45 977.87,-173.03 979.28,-179.89"/>
<text text-anchor="middle" x="753.5" y="-254.33" font-family="Helvetica,sans-Serif" font-size="10.00"> alt. target </text>
</g>
</g>
</svg>
